<?xml version="1.0" standalone="no"?>
<!DOCTYPE svg PUBLIC "-//W3C//DTD SVG 20010904//EN"
 "http://www.w3.org/TR/2001/REC-SVG-20010904/DTD/svg10.dtd">
<svg version="1.0" xmlns="http://www.w3.org/2000/svg"
 width="10000.000000pt" height="1576.000000pt" viewBox="0 0 10000.000000 1576.000000"
 preserveAspectRatio="xMidYMid meet">
<metadata>
Created by potrace 1.15, written by Peter Selinger 2001-2017
</metadata>
<g transform="translate(0.000000,1576.000000) scale(0.100000,-0.100000)"
fill="#000000" stroke="none">
<path d="M5110 12584 c-670 -59 -1132 -179 -1630 -424 -349 -171 -671 -382
-979 -638 -246 -205 -547 -526 -767 -819 -504 -671 -856 -1505 -974 -2306 -37
-250 -42 -333 -47 -730 -7 -528 14 -803 87 -1165 244 -1197 905 -2274 1845
-3008 377 -294 843 -557 1253 -708 288 -106 603 -181 932 -221 208 -26 726
-32 950 -10 717 68 1319 286 1965 710 1249 821 2090 2231 2235 3745 17 175 23
708 10 932 -22 398 -77 726 -185 1096 -208 710 -564 1365 -1063 1951 -125 148
-347 371 -487 490 -60 52 -126 108 -147 125 -20 17 -72 58 -117 90 -45 32 -95
72 -111 88 -17 16 -42 33 -55 38 -14 5 -72 41 -130 80 -57 38 -106 70 -109 70
-2 0 -47 24 -99 54 -489 283 -967 444 -1607 542 -101 15 -651 28 -770 18z
m-1636 -676 l36 -42 -62 -33 c-34 -18 -65 -33 -68 -33 -9 0 -84 79 -79 84 14
12 116 66 126 66 6 0 28 -19 47 -42z m3924 -16 l43 -25 -42 -43 -43 -44 -55
31 c-31 17 -58 33 -60 35 -2 2 13 24 33 49 41 50 33 50 124 -3z m-4156 -111
l42 -39 -70 -45 -69 -44 -40 32 c-22 18 -40 38 -40 44 0 11 110 88 128 90 4 1
26 -16 49 -38z m4434 -68 c1 -4 -17 -25 -40 -45 l-42 -37 -67 44 -67 43 47 40
47 40 61 -39 c33 -21 60 -41 61 -46z m-4020 -18 c20 -25 35 -47 33 -49 -2 -2
-26 -16 -52 -31 l-48 -28 -44 43 c-24 24 -42 47 -39 52 6 9 94 57 106 58 4 0
23 -20 44 -45z m3531 -3 l52 -27 -42 -48 -42 -48 -50 27 c-27 15 -52 29 -54
30 -5 4 70 94 78 94 3 -1 29 -13 58 -28z m-4149 -59 l33 -28 -76 -53 -75 -52
-45 32 c-24 18 -43 36 -42 40 1 4 33 29 72 57 75 53 75 53 133 4z m4793 -24
c38 -28 69 -55 69 -59 0 -9 -73 -70 -84 -70 -3 0 -38 23 -77 52 l-72 52 44 38
c24 21 46 38 48 38 2 0 34 -23 72 -51z m-4383 -32 l42 -43 -64 -38 c-50 -29
-69 -35 -83 -27 -23 12 -78 69 -72 75 16 14 116 75 124 75 6 1 30 -18 53 -42z
m3961 -15 l61 -38 -43 -42 c-24 -23 -46 -42 -50 -42 -3 0 -32 16 -63 36 l-56
36 43 44 c24 24 44 44 46 44 1 0 29 -17 62 -38z m-4571 -75 l32 -24 -72 -59
c-544 -435 -985 -991 -1309 -1649 -265 -539 -410 -1031 -476 -1607 -22 -193
-25 -954 -5 -1138 53 -479 152 -879 324 -1305 366 -908 981 -1674 1758 -2192
600 -400 1190 -614 1873 -679 238 -22 715 -15 933 15 520 71 994 234 1459 501
1051 603 1835 1624 2190 2850 154 532 214 1123 175 1715 -70 1049 -492 2071
-1198 2900 -124 145 -377 395 -522 515 -69 57 -126 106 -128 110 -1 3 18 21
43 39 l45 33 53 -43 c1033 -848 1713 -2150 1818 -3480 16 -207 7 -852 -15
-1024 -76 -603 -242 -1147 -516 -1690 -494 -980 -1223 -1715 -2159 -2174 -417
-205 -832 -322 -1333 -377 -212 -24 -684 -24 -896 0 -524 57 -969 187 -1407
411 -472 240 -845 513 -1205 881 -775 792 -1265 1817 -1402 2934 -9 73 -13
259 -13 615 0 540 4 598 56 905 194 1129 846 2254 1722 2971 117 96 110 94
175 46z m442 -77 c0 -3 -29 -25 -65 -49 -71 -48 -66 -49 -138 12 l-28 24 73
51 73 51 43 -42 c23 -23 42 -44 42 -47z m4341 11 l69 -48 -45 -42 c-27 -25
-50 -39 -58 -35 -38 23 -127 89 -127 95 0 8 77 79 86 79 3 0 37 -22 75 -49z
m-3992 -48 c17 -21 30 -41 28 -46 -1 -4 -25 -21 -53 -37 l-51 -29 -42 43 -41
42 52 31 c29 17 58 32 65 32 6 1 25 -16 42 -36z m-583 -49 c25 -21 43 -40 42
-45 -2 -4 -59 -52 -128 -106 -833 -660 -1441 -1674 -1634 -2723 -56 -307 -61
-379 -61 -890 0 -511 5 -581 61 -890 214 -1178 929 -2281 1894 -2925 553 -369
1056 -557 1700 -637 143 -18 739 -18 880 0 536 68 975 214 1430 477 589 339
1074 798 1455 1375 378 574 636 1272 725 1964 44 342 50 801 14 1146 -111
1092 -626 2141 -1409 2871 -114 106 -257 227 -328 279 l-49 35 48 42 48 41 66
-50 c121 -95 264 -222 387 -347 760 -762 1258 -1807 1358 -2847 21 -216 21
-852 0 -1068 -84 -877 -447 -1752 -1030 -2481 -286 -358 -611 -657 -990 -910
-545 -363 -1064 -562 -1680 -642 -175 -23 -766 -26 -935 -5 -501 62 -892 182
-1317 402 -723 375 -1330 952 -1774 1687 -357 590 -580 1244 -656 1916 -24
218 -24 916 0 1134 138 1226 774 2384 1732 3152 55 44 101 81 103 81 2 0 24
-16 48 -36z m371 -150 l-62 -42 -42 37 c-22 20 -41 38 -42 41 0 3 27 24 62 46
l62 42 42 -41 42 -41 -62 -42z m4063 10 c0 -1 -20 -19 -44 -39 l-45 -36 -65
43 -65 44 41 41 41 41 68 -45 c38 -25 69 -47 69 -49z m-4219 -50 l38 -37 -92
-70 c-299 -227 -546 -474 -775 -774 -506 -666 -827 -1494 -893 -2307 -18 -224
-7 -781 20 -971 106 -766 403 -1478 874 -2098 540 -710 1311 -1235 2092 -1422
506 -122 1172 -122 1671 0 258 64 448 135 699 264 1061 543 1843 1534 2150
2721 105 409 142 751 132 1230 -8 386 -38 624 -122 965 -171 696 -489 1310
-950 1835 -169 193 -448 448 -640 587 l-30 21 40 36 c22 19 44 35 49 36 10 0
157 -114 261 -204 851 -736 1398 -1815 1495 -2951 15 -169 15 -715 0 -875 -69
-779 -343 -1533 -784 -2164 -548 -782 -1379 -1387 -2201 -1601 -317 -83 -535
-108 -935 -108 -386 0 -605 24 -905 99 -619 156 -1258 532 -1753 1033 -656
662 -1121 1581 -1252 2476 -34 233 -43 418 -37 810 7 458 27 636 113 979 213
855 721 1701 1359 2266 124 109 314 260 329 260 6 0 27 -16 47 -36z m368 -83
l31 -38 -54 -36 -53 -35 -41 41 -41 41 56 37 c31 21 60 36 64 33 4 -2 21 -22
38 -43z m3588 -13 l64 -41 -37 -39 c-21 -21 -42 -38 -46 -38 -10 0 -118 71
-118 77 0 6 64 83 69 83 3 0 33 -19 68 -42z m-3763 -97 l37 -38 -113 -85
c-619 -466 -1102 -1145 -1368 -1926 -84 -244 -139 -476 -176 -737 -26 -184
-32 -876 -9 -1097 48 -472 169 -882 396 -1338 392 -787 976 -1379 1734 -1757
448 -224 876 -323 1401 -323 302 0 521 24 769 86 812 201 1605 787 2108 1555
389 594 613 1267 657 1974 49 786 -89 1497 -422 2174 -267 542 -679 1044
-1138 1388 l-90 67 37 38 c20 21 41 38 46 38 13 0 159 -114 272 -211 145 -125
373 -363 498 -519 484 -602 787 -1323 894 -2125 26 -192 26 -890 0 -1090 -162
-1256 -885 -2397 -1912 -3020 -157 -95 -448 -236 -600 -290 -233 -84 -527
-149 -784 -175 -133 -13 -529 -13 -662 0 -963 96 -1835 605 -2478 1449 -385
506 -667 1117 -785 1704 -54 266 -67 403 -73 767 -10 613 37 969 192 1435 271
822 767 1525 1425 2023 52 40 97 72 100 72 3 0 23 -17 44 -39z m3600 -196
l-37 -43 -53 35 c-33 22 -51 40 -46 47 4 6 18 28 32 48 l24 36 58 -40 58 -39
-36 -44z m-3413 -6 l36 -42 -136 -103 c-802 -605 -1338 -1565 -1446 -2588 -20
-195 -20 -699 0 -891 109 -1027 646 -1980 1460 -2590 467 -350 931 -541 1440
-594 589 -61 1114 20 1582 244 581 278 1104 747 1462 1312 262 414 459 914
536 1363 65 377 73 927 19 1300 -97 665 -380 1311 -808 1844 -165 205 -449
477 -658 630 l-67 49 30 38 c17 22 34 41 39 44 9 6 159 -107 285 -215 114 -99
339 -328 436 -445 480 -581 797 -1331 873 -2067 85 -826 -45 -1571 -398 -2279
-469 -938 -1336 -1665 -2241 -1879 -401 -94 -955 -102 -1368 -20 -574 115
-1150 439 -1617 909 -539 543 -934 1297 -1079 2061 -46 245 -56 368 -56 730 0
430 20 617 101 948 190 778 647 1537 1232 2045 87 75 291 236 302 237 3 0 21
-18 41 -41z m199 -251 c0 -4 -26 -25 -59 -47 -105 -72 -284 -223 -401 -341
-565 -564 -938 -1366 -1009 -2167 -14 -156 -14 -580 0 -736 91 -1022 643
-1975 1469 -2536 390 -265 762 -410 1185 -462 129 -16 541 -16 670 0 411 50
752 181 1135 436 399 264 757 639 1005 1050 294 488 466 1027 505 1580 50 703
-71 1339 -366 1926 -241 482 -592 911 -984 1204 -36 26 -69 52 -73 55 -8 7 39
90 51 90 3 0 39 -26 81 -57 741 -555 1251 -1439 1388 -2408 26 -187 26 -852 0
-1030 -94 -642 -332 -1222 -706 -1722 -455 -609 -1102 -1052 -1747 -1197 -408
-92 -966 -82 -1352 25 -591 164 -1159 549 -1581 1074 -428 533 -704 1188 -787
1875 -26 205 -26 715 0 920 70 576 270 1119 591 1605 228 345 490 623 823 873
l97 72 32 -37 c18 -21 33 -41 33 -45z m1730 27 c128 -9 318 -50 464 -101 72
-25 137 -46 145 -46 8 -1 80 -35 160 -76 274 -140 474 -285 691 -502 171 -170
246 -262 378 -460 252 -378 426 -828 492 -1275 41 -272 38 -755 -6 -1028 -86
-532 -327 -1066 -669 -1482 -102 -124 -312 -329 -425 -416 -488 -376 -977
-540 -1540 -514 -343 15 -571 71 -855 210 -262 128 -470 274 -683 480 -267
257 -446 507 -618 860 -158 326 -252 643 -296 995 -20 162 -17 682 5 840 81
584 304 1105 666 1560 97 122 309 335 431 432 99 80 315 228 332 228 5 0 24
11 41 24 124 95 565 233 847 265 163 19 230 20 440 6z m-1605 -212 c14 -21 25
-40 25 -44 0 -3 -51 -45 -112 -92 -400 -303 -702 -679 -933 -1160 -163 -339
-258 -661 -300 -1022 -23 -192 -23 -657 0 -849 42 -358 138 -686 301 -1025
171 -357 373 -639 651 -912 224 -221 454 -385 728 -520 252 -124 488 -192 759
-220 161 -16 558 -7 686 16 406 73 766 242 1130 532 115 91 357 335 455 458
328 410 573 935 669 1431 45 233 51 318 50 684 0 306 -3 361 -23 490 -55 356
-153 665 -315 990 -210 420 -509 794 -856 1069 -58 46 -107 85 -109 87 -2 2 9
24 23 49 l27 45 92 -70 c581 -446 1006 -1107 1192 -1853 77 -312 107 -670 87
-1040 -14 -246 -38 -415 -87 -614 -200 -805 -681 -1511 -1330 -1952 -511 -348
-1004 -483 -1611 -442 -344 24 -614 98 -914 252 -593 304 -1073 800 -1385
1434 -182 368 -276 671 -332 1065 -25 180 -25 760 0 940 56 394 150 697 332
1065 235 478 549 859 961 1170 55 41 102 75 106 75 4 0 19 -17 33 -37z"/>
<path d="M49664 12580 c-634 -32 -1227 -186 -1819 -474 -861 -418 -1557 -1028
-2079 -1823 -388 -591 -638 -1206 -745 -1833 -49 -286 -56 -391 -56 -875 0
-379 4 -486 18 -610 70 -582 212 -1048 487 -1590 413 -815 1040 -1522 1780
-2010 585 -385 1231 -643 1860 -744 443 -71 1082 -80 1545 -20 153 19 374 58
443 78 l32 10 0 -75 0 -74 75 0 75 0 0 1125 0 1125 65 0 65 0 0 -1125 0 -1125
75 0 75 0 0 1125 0 1125 65 0 65 0 0 -1125 0 -1125 75 0 75 0 0 1125 0 1125
70 0 70 0 0 -1125 0 -1125 75 0 75 0 0 1125 0 1125 65 0 65 0 0 -1125 0 -1125
75 0 75 0 0 1125 0 1125 65 0 65 0 0 -1125 0 -1125 70 0 70 0 0 1125 0 1125
65 0 65 0 0 -1125 0 -1125 75 0 75 0 0 1125 0 1125 65 0 65 0 0 -1125 0 -1125
75 0 75 0 0 1935 0 1935 -1840 0 -1840 0 0 -80 0 -80 785 0 785 0 0 -651 0
-650 -76 -36 c-178 -82 -440 -157 -659 -188 -277 -40 -659 -38 -914 6 -551 94
-1099 387 -1531 819 -441 441 -716 969 -817 1567 -15 91 -18 165 -18 468 1
345 2 366 27 505 81 445 274 869 568 1250 94 122 378 406 500 500 340 262 753
461 1130 544 183 40 337 56 600 63 275 6 425 -4 618 -43 363 -72 790 -273
1139 -535 51 -38 94 -69 96 -69 2 0 9 26 16 58 7 31 15 65 17 74 10 33 -263
220 -501 344 -378 197 -715 290 -1145 316 -591 35 -1097 -73 -1585 -338 -841
-457 -1452 -1287 -1604 -2176 -17 -97 -39 -387 -39 -503 0 -109 21 -404 34
-489 133 -851 686 -1642 1479 -2116 356 -213 727 -346 1089 -392 l96 -12 0
-68 0 -68 -37 0 c-59 0 -274 37 -402 70 -230 58 -408 127 -654 252 -565 288
-1032 739 -1346 1300 -287 513 -408 1026 -387 1638 15 442 92 780 266 1161
304 664 824 1209 1467 1537 501 255 889 342 1523 342 336 0 598 -41 871 -136
289 -100 579 -251 829 -430 50 -36 93 -64 94 -62 8 11 46 113 46 123 0 6 -42
41 -92 77 -425 298 -911 488 -1423 554 -182 24 -646 24 -840 1 -239 -29 -473
-85 -684 -163 -1047 -391 -1858 -1287 -2125 -2350 -95 -379 -113 -892 -46
-1313 87 -539 347 -1095 726 -1551 533 -641 1350 -1101 2102 -1182 l112 -12 0
-73 0 -72 -32 4 c-18 3 -73 10 -123 16 -860 107 -1717 624 -2280 1374 -326
435 -552 939 -634 1416 -35 205 -44 358 -38 717 5 344 12 420 56 634 168 811
759 1661 1498 2156 456 305 935 487 1443 547 283 33 691 29 957 -10 413 -61
854 -227 1252 -472 58 -36 126 -80 151 -98 25 -19 52 -35 59 -37 7 -2 22 22
37 61 13 35 23 65 22 66 -2 2 -42 28 -89 58 -492 316 -1017 508 -1554 569
-140 15 -633 15 -785 -1 -331 -34 -632 -110 -924 -232 -846 -355 -1534 -1003
-1936 -1824 -168 -344 -266 -666 -317 -1042 -25 -183 -25 -753 0 -936 51 -376
149 -698 317 -1042 275 -561 690 -1051 1197 -1413 497 -353 1091 -588 1613
-637 117 -11 110 -5 110 -90 l0 -74 -52 5 c-340 36 -617 100 -908 211 -663
253 -1264 704 -1692 1269 -348 460 -591 989 -692 1513 -48 245 -60 392 -60
726 0 334 12 481 60 726 101 522 344 1054 690 1511 534 705 1332 1226 2162
1413 434 97 1054 110 1492 29 453 -83 969 -295 1352 -556 41 -27 60 -35 63
-26 2 7 10 38 18 68 l14 55 -56 38 c-100 68 -268 166 -402 232 -397 199 -810
320 -1249 367 -148 15 -659 15 -815 -1 -475 -49 -927 -189 -1359 -422 -755
-407 -1338 -1006 -1718 -1762 -198 -396 -305 -738 -365 -1167 -22 -158 -26
-817 -5 -970 58 -438 153 -762 331 -1135 430 -898 1168 -1606 2079 -1994 326
-139 643 -221 981 -252 l131 -13 0 -73 0 -73 -38 0 c-20 0 -96 7 -167 15 -398
47 -764 156 -1150 345 -864 423 -1546 1105 -1956 1955 -215 447 -334 883 -369
1355 -21 279 -10 666 26 915 80 559 290 1097 629 1610 638 967 1702 1645 2805
1790 290 38 726 42 1035 9 526 -56 1097 -259 1578 -561 53 -34 99 -58 101 -55
2 4 9 33 17 65 10 49 10 60 -2 72 -26 25 -264 157 -424 235 -455 221 -866 342
-1330 391 -176 19 -701 16 -892 -5 -543 -59 -1031 -214 -1516 -483 -774 -429
-1389 -1078 -1782 -1878 -181 -368 -291 -709 -349 -1075 -34 -216 -40 -329
-40 -695 0 -366 6 -479 40 -695 58 -366 168 -707 349 -1075 339 -691 853
-1279 1485 -1700 589 -391 1189 -613 1813 -667 l137 -12 0 -68 0 -68 -47 0
c-138 0 -464 50 -668 101 -1052 265 -2023 987 -2627 1954 -338 540 -535 1081
-610 1675 -18 146 -18 964 0 1110 56 441 167 812 367 1225 529 1090 1489 1941
2610 2314 360 119 660 172 1094 192 547 26 992 -28 1441 -173 289 -93 655
-257 900 -403 52 -31 99 -57 104 -58 8 -2 60 122 54 128 -17 17 -230 135 -370
205 -651 325 -1313 469 -2048 445 -768 -24 -1376 -192 -2030 -563 -544 -307
-1041 -749 -1422 -1262 -381 -513 -663 -1123 -777 -1682 -64 -308 -76 -460
-76 -923 0 -463 12 -615 76 -923 114 -559 396 -1168 777 -1682 283 -382 655
-747 1040 -1021 361 -258 849 -506 1235 -628 275 -87 601 -150 870 -167 l107
-7 0 -73 0 -74 -52 0 c-77 0 -314 27 -453 50 -731 126 -1461 475 -2105 1008
-151 125 -461 436 -586 587 -259 314 -459 623 -633 980 -210 428 -337 847
-396 1298 -43 338 -41 978 6 1302 169 1169 838 2281 1814 3015 663 498 1444
814 2212 895 313 33 818 29 1119 -10 548 -70 1140 -272 1638 -560 54 -31 99
-55 101 -53 2 2 9 36 18 76 l14 72 -102 55 c-571 307 -1134 492 -1690 557
-164 19 -851 15 -1065 -6 -711 -71 -1357 -297 -2002 -702 -592 -371 -1132
-909 -1506 -1499 -357 -565 -577 -1120 -670 -1695 -41 -250 -47 -350 -47 -805
0 -462 4 -523 51 -810 127 -775 520 -1587 1091 -2254 702 -819 1740 -1419
2735 -1581 150 -24 382 -50 456 -50 l52 0 0 -76 0 -76 -97 6 c-678 48 -1334
253 -1962 615 -588 340 -1127 819 -1526 1356 -498 669 -827 1454 -919 2195
-36 283 -47 769 -26 1095 46 715 263 1384 665 2053 231 385 483 703 812 1022
370 360 750 630 1228 870 507 256 956 395 1515 471 218 30 894 39 1140 15 592
-56 1211 -249 1771 -551 67 -36 126 -67 131 -68 9 -2 58 114 58 139 0 17 -448
238 -625 308 -354 139 -724 241 -1055 291 -293 44 -743 63 -1096 45z m2316
-7375 l0 -55 -70 0 -70 0 0 55 0 55 70 0 70 0 0 -55z m-570 -260 l0 -85 -65 0
-65 0 0 85 0 85 65 0 65 0 0 -85z m280 0 l0 -85 -65 0 -65 0 0 85 0 85 65 0
65 0 0 -85z m290 0 l0 -85 -70 0 -70 0 0 85 0 85 70 0 70 0 0 -85z m280 0 l0
-85 -65 0 -65 0 0 85 0 85 65 0 65 0 0 -85z m280 0 l0 -85 -65 0 -65 0 0 85 0
85 65 0 65 0 0 -85z m270 0 l0 -85 -65 0 -65 0 0 85 0 85 65 0 65 0 0 -85z
m280 0 l0 -85 -65 0 -65 0 0 85 0 85 65 0 65 0 0 -85z m-3246 -391 l46 -7 0
-70 0 -70 -46 7 c-26 3 -62 6 -80 6 l-34 0 0 70 0 70 34 0 c18 0 54 -3 80 -6z
m9 -280 l37 -7 0 -70 0 -70 -37 7 c-21 3 -57 6 -80 6 l-43 0 0 70 0 70 43 0
c23 0 59 -3 80 -6z m267 -74 l0 -70 -55 0 -55 0 0 70 0 70 55 0 55 0 0 -70z
m-267 -206 l37 -7 0 -75 0 -75 -37 7 c-21 3 -57 6 -80 6 l-43 0 0 75 0 75 43
0 c23 0 59 -3 80 -6z m267 -79 l0 -75 -55 0 -55 0 0 75 0 75 55 0 55 0 0 -75z
m-230 -280 l0 -75 -80 0 -80 0 0 75 0 75 80 0 80 0 0 -75z m230 0 l0 -75 -55
0 -55 0 0 75 0 75 55 0 55 0 0 -75z m-230 -285 l0 -70 -80 0 -80 0 0 70 0 70
80 0 80 0 0 -70z m230 0 l0 -70 -55 0 -55 0 0 70 0 70 55 0 55 0 0 -70z m-230
-285 l0 -75 -80 0 -80 0 0 75 0 75 80 0 80 0 0 -75z m230 0 l0 -75 -55 0 -55
0 0 75 0 75 55 0 55 0 0 -75z m-230 -275 l0 -70 -80 0 -80 0 0 70 0 70 80 0
80 0 0 -70z m230 0 l0 -70 -55 0 -55 0 0 70 0 70 55 0 55 0 0 -70z"/>
<path d="M13316 12528 c-17 -58 -107 -404 -161 -618 -32 -124 -86 -332 -224
-865 -29 -110 -208 -798 -397 -1530 -190 -731 -355 -1366 -368 -1410 -13 -44
-29 -108 -36 -142 -7 -35 -16 -63 -20 -63 -4 0 -11 -21 -15 -47 -9 -66 -33
-162 -50 -198 -7 -16 -23 -77 -35 -135 -11 -58 -50 -213 -84 -345 -76 -286
-96 -369 -96 -390 0 -13 159 -15 1545 -15 l1544 0 16 -57 c9 -32 18 -64 20
-70 4 -10 -319 -13 -1589 -13 l-1593 0 -12 -57 c-6 -31 -11 -62 -11 -70 0 -11
277 -13 1623 -13 l1623 0 17 -64 c9 -35 17 -67 17 -70 0 -3 -746 -6 -1658 -6
l-1658 0 -22 -62 c-12 -35 -22 -69 -22 -75 0 -10 350 -13 1701 -15 l1702 -3
18 -65 c10 -36 18 -66 19 -67 0 -2 -782 -3 -1739 -3 l-1738 0 -12 -57 c-6 -31
-11 -62 -11 -70 0 -11 301 -13 1768 -13 l1769 0 20 -75 20 -75 -1814 0 -1813
0 -10 -26 c-6 -14 -13 -43 -16 -65 l-7 -39 1846 0 1846 0 17 -57 c8 -32 18
-66 20 -75 5 -17 -91 -18 -1887 -20 l-1893 -3 -13 -50 c-7 -27 -13 -58 -13
-67 0 -17 98 -18 1924 -18 l1923 0 17 -58 c9 -32 16 -64 16 -70 0 -9 -456 -12
-1958 -12 l-1958 0 -12 -58 c-7 -32 -12 -64 -12 -70 0 -9 462 -13 1991 -14
l1992 -3 18 -65 c10 -36 18 -68 19 -72 0 -5 -917 -9 -2037 -10 l-2037 -3 -47
-180 c-27 -99 -75 -279 -108 -400 -33 -121 -150 -566 -261 -990 -111 -423
-204 -778 -206 -788 -5 -16 1 -18 72 -15 l77 3 126 490 126 490 78 3 c72 3 78
1 73 -15 -9 -31 -256 -964 -256 -969 0 -2 34 -4 75 -4 l74 0 9 32 c5 18 62
241 128 496 l119 462 72 0 c40 0 73 -1 73 -3 0 -1 -56 -221 -125 -487 -69
-267 -125 -489 -125 -493 0 -4 30 -7 67 -5 l67 3 130 493 130 492 79 0 c70 0
78 -2 73 -17 -15 -48 -246 -952 -246 -962 0 -7 23 -11 64 -11 53 0 66 3 70 18
3 9 62 231 131 492 70 261 128 476 129 478 2 1 35 2 74 0 l70 -3 -129 -485
c-71 -267 -129 -488 -129 -492 0 -5 33 -8 74 -8 68 0 74 2 80 23 3 12 60 235
127 494 l122 473 74 0 c66 0 74 -2 69 -17 -15 -49 -246 -954 -246 -963 0 -6
30 -10 73 -10 l74 0 126 491 c70 271 128 494 131 496 2 2 35 3 73 1 l70 -3
-126 -490 -127 -490 64 -3 c36 -2 66 -1 68 1 3 2 63 224 134 492 71 268 131
489 133 492 3 2 36 3 74 1 l69 -3 -127 -480 c-71 -264 -128 -486 -129 -492 0
-9 21 -13 75 -13 41 0 75 2 75 5 0 16 292 1133 299 1146 5 9 12 34 16 55 12
74 28 139 35 144 4 3 17 50 29 105 11 55 61 253 109 440 l89 340 1683 0 1683
0 296 -1117 296 -1118 77 0 76 0 -29 112 c-17 62 -610 2320 -1318 5018 l-1287
4905 -822 3 -821 2 -15 -52z m36 -1010 l-17 -63 -74 -3 -73 -3 6 28 c4 15 12
45 17 66 l10 37 74 0 73 0 -16 -62z m308 50 c0 -7 -6 -35 -13 -63 l-13 -50
-72 -3 c-82 -3 -81 -5 -57 76 l16 52 69 0 c50 0 70 -4 70 -12z m296 -5 c-3
-10 -10 -39 -17 -65 l-11 -48 -79 0 c-44 0 -79 3 -79 7 0 4 7 33 16 65 l17 58
79 0 c71 0 79 -2 74 -17z m284 5 c0 -7 -6 -35 -13 -63 l-13 -50 -72 -3 c-81
-3 -79 -5 -56 74 l15 54 70 0 c49 0 69 -4 69 -12z m300 1 c0 -6 -7 -35 -16
-65 l-15 -54 -70 0 c-49 0 -69 4 -69 13 0 11 15 75 25 105 6 16 145 17 145 1z
m300 0 c0 -6 -7 -35 -16 -65 l-15 -54 -75 0 c-41 0 -74 2 -74 5 0 3 7 32 17
65 l16 60 74 0 c46 0 73 -4 73 -11z m249 -33 c21 -86 21 -86 -65 -86 -67 0
-75 2 -70 18 3 9 10 38 17 65 l11 47 48 0 48 0 11 -44z m-1793 -233 c-4 -16
-14 -52 -22 -80 l-15 -53 -69 0 c-39 0 -70 3 -70 8 0 4 7 40 17 80 l17 72 74
0 74 0 -6 -27z m300 10 c-3 -10 -10 -38 -16 -63 -21 -86 -14 -80 -95 -80 l-73
0 20 80 20 80 75 0 c66 0 74 -2 69 -17z m294 5 c0 -7 -8 -42 -18 -78 l-19 -65
-76 -3 c-53 -2 -77 1 -77 9 0 14 30 131 36 141 9 14 154 9 154 -4z m286 -5
c-3 -10 -10 -38 -16 -63 -21 -86 -14 -80 -94 -80 l-74 0 22 80 21 80 73 0 c65
0 73 -2 68 -17z m300 0 c-4 -9 -14 -45 -22 -80 l-16 -63 -75 0 c-66 0 -74 2
-69 17 4 9 14 45 22 80 l16 63 75 0 c66 0 74 -2 69 -17z m300 0 c-4 -9 -14
-45 -22 -80 l-16 -63 -74 0 c-55 0 -74 3 -74 13 0 11 21 93 35 135 3 8 29 12
81 12 67 0 75 -2 70 -17z m284 10 c0 -5 -9 -39 -18 -78 l-18 -70 -72 -3 c-56
-2 -72 0 -72 11 0 11 21 92 35 135 5 13 145 18 145 5z m689 -2298 c308 -1155
558 -2101 557 -2102 -2 -2 -507 -2 -1122 -1 l-1120 3 72 275 c131 505 217 834
241 930 127 495 785 3028 789 3040 8 19 -73 316 583 -2145z m-2549 1913 c-20
-79 -180 -693 -356 -1365 l-318 -1223 -74 0 c-65 0 -73 2 -68 18 3 9 158 607
346 1327 188 721 345 1327 351 1348 l10 37 73 0 74 0 -38 -142z m330 135 c1
-5 -158 -619 -352 -1365 l-353 -1358 -72 0 c-40 0 -73 2 -73 5 0 5 699 2693
705 2713 5 13 145 18 145 5z m297 -5 c-2 -7 -158 -598 -346 -1313 -188 -715
-349 -1324 -357 -1352 l-15 -53 -75 0 c-67 0 -75 2 -70 18 3 9 159 607 346
1327 188 721 346 1327 351 1348 l10 37 80 0 c61 0 80 -3 76 -12z m283 0 c0
-11 -700 -2701 -703 -2704 -6 -5 -147 -15 -147 -11 0 6 697 2682 706 2710 4
14 17 17 75 17 45 0 69 -4 69 -12z m300 5 c0 -5 -158 -617 -352 -1360 l-353
-1353 -73 0 c-65 0 -73 2 -68 18 3 9 161 616 351 1347 190 732 348 1336 350
1343 5 13 145 18 145 5z m298 -10 c-2 -10 -161 -622 -354 -1360 l-349 -1343
-77 0 c-43 0 -78 4 -78 9 0 4 155 599 346 1322 190 723 350 1331 355 1352 l10
37 76 0 c67 0 75 -2 71 -17z m287 5 c-7 -20 -705 -2696 -705 -2702 0 -3 -34
-6 -76 -6 -67 0 -75 2 -70 18 7 22 706 2694 706 2699 0 1 34 3 75 3 55 0 73
-3 70 -12z m-2489 -2795 c-3 -10 -13 -48 -22 -85 l-16 -68 -75 0 c-66 0 -74 2
-69 18 3 9 13 47 22 85 l16 67 75 0 c66 0 74 -2 69 -17z m281 -68 l-21 -85
-73 0 c-40 0 -73 3 -73 7 0 4 9 42 21 85 l21 78 73 0 72 0 -20 -85z m303 71
c0 -7 -4 -26 -10 -42 -5 -16 -14 -48 -20 -71 l-11 -43 -75 0 c-57 0 -75 3 -72
13 3 6 13 45 23 85 l19 72 73 0 c55 0 73 -3 73 -14z m276 4 l20 0 -20 -80 -21
-80 -72 0 c-40 0 -73 3 -73 6 0 4 10 43 22 86 l22 80 50 -6 c28 -3 60 -6 72
-6z m314 -12 c-1 -7 -9 -42 -19 -78 l-18 -65 -71 -3 c-40 -2 -72 0 -72 4 0 7
29 122 35 142 3 8 27 12 75 12 49 0 70 -4 70 -12z m300 5 c0 -5 -9 -39 -18
-78 l-18 -70 -81 -3 -81 -3 21 81 21 80 78 0 c43 0 78 -3 78 -7z m280 0 c0 -5
-7 -41 -17 -80 l-17 -73 -74 0 -74 0 7 28 c3 15 13 51 21 80 l15 52 70 0 c38
0 69 -3 69 -7z m-353 -287 c-3 -8 -9 -31 -13 -50 l-6 -36 -79 0 c-86 0 -86 0
-68 63 l10 37 81 0 c65 0 79 -3 75 -14z m1248 -1273 c9 -32 18 -64 20 -70 3
-10 -15 -13 -69 -13 l-74 0 -16 65 c-9 35 -16 67 -16 70 0 3 31 5 70 5 l69 0
16 -57z m73 -270 c6 -27 14 -58 18 -71 6 -23 6 -23 -67 -20 l-73 3 -12 40 c-6
22 -14 52 -18 68 l-6 27 73 0 74 0 11 -47z m83 -313 c10 -36 18 -66 19 -67 0
-2 -33 -3 -74 -3 l-74 0 -16 65 c-9 35 -16 67 -16 70 0 3 32 5 72 3 l71 -3 18
-65z m73 -275 c9 -35 16 -69 16 -75 0 -6 -28 -10 -69 -10 l-70 0 -16 58 c-9
31 -18 65 -21 75 -5 15 3 17 69 17 l75 0 16 -65z m72 -272 c8 -32 18 -66 20
-75 5 -16 -3 -18 -69 -18 l-75 0 -16 65 c-9 35 -16 69 -16 75 0 6 28 10 70 10
l69 0 17 -57z m77 -293 c10 -33 17 -64 17 -70 0 -7 -26 -10 -72 -8 l-71 3 -18
65 c-10 36 -18 66 -19 68 0 1 33 2 73 2 l74 0 16 -60z m78 -290 c10 -36 18
-68 19 -72 0 -5 -33 -8 -74 -8 l-74 0 -16 65 c-9 35 -16 69 -16 75 0 7 25 10
72 8 l71 -3 18 -65z m-4308 -1350 l-15 -60 -78 0 -78 0 15 60 15 60 78 0 78 0
-15 -60z m290 0 l-15 -60 -75 0 c-66 0 -74 2 -69 18 3 9 10 36 16 60 l11 42
73 0 74 0 -15 -60z m307 51 c0 -5 -5 -32 -12 -60 l-11 -51 -79 0 c-71 0 -79 2
-74 18 2 9 10 36 17 60 l12 42 74 0 c40 0 73 -4 73 -9z m281 -51 l-16 -60 -72
0 c-40 0 -73 3 -73 6 0 3 7 30 16 60 l15 54 73 0 73 0 -16 -60z m290 0 l-16
-60 -73 0 c-65 0 -73 2 -68 18 3 9 10 36 16 60 l11 42 73 0 73 0 -16 -60z
m304 24 c-15 -82 -17 -84 -95 -84 -38 0 -70 3 -70 8 0 7 18 76 25 100 3 8 28
12 76 12 l71 0 -7 -36z m290 0 c-15 -82 -17 -84 -95 -84 -38 0 -70 3 -70 8 0
7 18 76 25 100 3 8 28 12 76 12 l71 0 -7 -36z"/>
<path d="M15122 12568 c2 -7 596 -2266 1319 -5020 l1314 -5008 74 0 74 0 -7
30 c-6 32 -2587 9868 -2612 9958 l-15 52 -76 0 c-56 0 -74 -3 -71 -12z"/>
<path d="M15425 12553 c3 -16 596 -2272 1316 -5015 720 -2743 1309 -4990 1309
-4993 0 -3 34 -5 76 -5 74 0 76 1 72 22 -3 13 -591 2255 -1307 4983 -716 2728
-1307 4977 -1312 4998 l-10 37 -75 0 -76 0 7 -27z"/>
<path d="M15720 12570 c0 -6 2442 -9316 2621 -9992 l10 -38 74 0 c41 0 75 2
75 5 0 5 -2615 9908 -2636 9983 l-15 52 -64 0 c-36 0 -65 -4 -65 -10z"/>
<path d="M16000 12575 c0 -6 2614 -9906 2636 -9982 l15 -53 64 0 c36 0 65 4
65 9 0 7 -2303 8788 -2621 9994 l-10 37 -74 0 c-41 0 -75 -2 -75 -5z"/>
<path d="M16300 12571 c0 -4 588 -2247 1306 -4982 718 -2736 1310 -4991 1315
-5011 l10 -38 75 0 76 0 -7 27 c-3 16 -593 2262 -1310 4993 -717 2731 -1307
4977 -1310 4993 -7 26 -9 27 -81 27 -41 0 -74 -4 -74 -9z"/>
<path d="M16606 12533 c7 -27 594 -2262 1304 -4968 710 -2706 1298 -4944 1306
-4972 l15 -53 75 0 c67 0 75 2 70 18 -3 9 -597 2260 -1321 5002 -724 2742
-1318 4993 -1321 5003 -4 14 -17 17 -74 17 l-68 0 14 -47z"/>
<path d="M16927 12448 c19 -73 612 -2331 1317 -5018 l1282 -4885 67 -3 c37 -2
67 1 67 6 0 5 -588 2248 -1306 4983 -718 2736 -1310 4991 -1315 5012 l-10 37
-69 0 -68 0 35 -132z"/>
<path d="M20760 7560 l0 -5020 85 0 85 0 0 4280 0 4280 55 0 55 0 0 -4280 0
-4280 85 0 85 0 0 4280 0 4280 60 0 60 0 0 -4280 0 -4280 80 0 80 0 0 4280 0
4280 60 0 60 0 0 -4280 0 -4280 85 0 85 0 0 4280 0 4280 55 0 55 0 0 -4280 0
-4280 85 0 85 0 0 4280 0 4280 55 0 55 0 0 -4280 0 -4280 85 0 85 0 2 4236 3
4237 58 -131 57 -130 0 -4106 0 -4106 80 0 80 0 0 3938 0 3937 60 -127 60
-127 0 -3811 0 -3810 85 0 85 0 2 3625 3 3624 970 -2087 c533 -1148 1092
-2352 1243 -2677 151 -324 287 -617 302 -650 16 -33 69 -148 118 -255 50 -107
126 -271 169 -365 44 -93 189 -405 323 -693 l243 -522 428 0 429 0 0 5020 0
5020 -75 0 -75 0 -2 -3236 -3 -3235 -1509 3228 c-829 1775 -1512 3232 -1516
3236 -4 4 -43 7 -87 5 l-81 -3 1124 -2402 1124 -2401 -36 -78 -35 -77 -1162
2481 -1162 2482 -78 0 -78 0 15 -27 c65 -128 2379 -5112 2378 -5123 -1 -17
-62 -154 -66 -149 -2 2 -558 1195 -1236 2652 l-1234 2647 -83 0 c-46 0 -83 -1
-83 -2 0 -2 575 -1236 1279 -2743 l1278 -2740 -24 -55 c-14 -30 -29 -66 -35
-80 -10 -24 -11 -24 -20 -5 -5 11 -597 1280 -1316 2820 l-1307 2800 -83 3
c-45 2 -82 0 -82 -4 0 -4 606 -1306 1346 -2893 741 -1587 1351 -2897 1357
-2911 8 -21 3 -39 -25 -100 l-35 -75 -26 55 c-15 30 -643 1376 -1396 2990
l-1370 2935 -85 3 -86 3 44 -93 c23 -51 672 -1440 1440 -3086 l1398 -2992 -33
-75 c-18 -41 -35 -73 -38 -70 -4 2 -670 1423 -1481 3159 l-1475 3156 -83 0
c-63 0 -83 -3 -79 -12 3 -7 681 -1464 1507 -3238 827 -1774 1507 -3237 1513
-3251 8 -22 5 -38 -19 -93 -15 -36 -31 -66 -35 -66 -3 0 -705 1497 -1560 3326
-855 1830 -1559 3328 -1565 3331 -6 2 -41 3 -77 1 l-66 -3 1594 -3423 1594
-3423 -32 -74 c-18 -41 -35 -75 -38 -75 -3 0 -739 1575 -1635 3500 l-1629
3499 -517 1 -518 0 0 -5020z m280 3700 l0 -90 -55 0 -55 0 0 90 0 90 55 0 55
0 0 -90z m290 0 l0 -90 -60 0 -60 0 0 90 0 90 60 0 60 0 0 -90z m280 0 l0 -90
-60 0 -60 0 0 90 0 90 60 0 60 0 0 -90z m280 0 l0 -90 -55 0 -55 0 0 90 0 90
55 0 55 0 0 -90z m280 0 l0 -90 -55 0 -55 0 0 90 0 90 55 0 55 0 0 -90z m3949
-3678 c0 -10 -13 -51 -28 -92 l-29 -75 -27 60 c-15 33 -27 67 -27 75 0 8 15
46 32 84 l31 69 25 -53 c13 -28 24 -59 23 -68z m-161 -298 l31 -67 -30 -81
c-17 -44 -31 -82 -33 -83 -2 -2 -19 32 -39 76 l-36 79 31 71 c18 39 35 71 38
71 4 0 21 -30 38 -66z m104 -368 c-14 -47 -28 -86 -32 -86 -3 0 -17 25 -29 55
l-23 56 23 62 c38 106 38 106 64 49 l23 -50 -26 -86z m-248 14 c20 -43 36 -81
36 -84 0 -2 -14 -41 -31 -86 l-31 -81 -44 94 -44 94 31 71 c18 40 35 72 39 72
4 0 24 -36 44 -80z m133 -385 c-10 -35 -22 -77 -28 -92 -11 -28 -12 -27 -45
43 l-34 70 25 70 c14 38 28 76 31 84 4 10 17 -7 37 -47 l31 -63 -17 -65z
m-283 31 l48 -105 -27 -73 c-15 -40 -31 -76 -34 -80 -4 -5 -29 39 -55 97 l-49
106 34 79 c19 44 34 80 35 80 0 0 22 -47 48 -104z m149 -473 l-28 -93 -42 90
-42 91 31 86 32 87 38 -84 39 -83 -28 -94z m-244 -2 c0 -9 -13 -50 -29 -91
l-28 -75 -56 118 c-31 65 -56 124 -56 130 0 7 14 45 32 85 l32 73 53 -112 c29
-61 53 -119 52 -128z m379 -134 l23 -53 -23 -92 c-12 -51 -25 -92 -28 -92 -4
0 -18 27 -32 59 l-26 60 27 85 c14 47 28 86 31 86 3 0 15 -24 28 -53z m-273
-77 l43 -92 -15 -51 c-9 -29 -22 -70 -28 -92 l-13 -40 -49 104 -50 103 31 83
c17 46 32 82 34 80 2 -2 23 -45 47 -95z m-300 -49 l56 -123 -27 -79 c-16 -43
-30 -76 -32 -74 -2 2 -33 65 -67 139 l-64 135 32 71 c17 38 34 67 38 63 4 -5
32 -64 64 -132z m-141 -338 l66 -141 -31 -86 c-18 -48 -33 -85 -34 -84 -2 2
-35 72 -74 156 l-70 152 34 77 c20 42 37 74 39 72 3 -2 34 -68 70 -146z m606
-115 l-24 -100 -39 78 -39 78 28 95 28 95 35 -73 34 -73 -23 -100z m-277 -95
l-26 -86 -54 113 c-29 62 -53 120 -53 129 0 8 12 47 27 86 l27 70 53 -113 53
-113 -27 -86z m433 -90 c20 -48 20 -48 -1 -158 l-20 -109 -28 65 -28 65 23 92
c12 51 25 92 28 92 3 0 15 -21 26 -47z m-552 -300 c-16 -51 -30 -90 -32 -88
-3 2 -31 62 -64 132 l-60 128 17 50 c9 28 24 66 32 85 l15 35 60 -125 59 -124
-27 -93z m284 38 l-24 -94 -46 100 -47 100 27 85 27 84 43 -90 43 -91 -23 -94z
m-106 -425 l-26 -101 -54 115 -54 115 28 95 28 95 52 -109 51 -108 -25 -102z
m282 57 c-10 -51 -20 -93 -23 -93 -3 0 -21 34 -40 75 l-33 75 23 92 23 93 33
-75 34 -74 -17 -93z m-109 -274 l38 -81 -18 -100 c-10 -54 -22 -101 -25 -103
-4 -3 -26 37 -49 87 l-42 92 23 93 c12 51 25 93 28 93 4 0 24 -36 45 -81z
m215 -458 c22 -48 22 -52 10 -148 -19 -142 -21 -145 -54 -74 l-29 60 18 105
c10 58 21 106 25 106 4 0 17 -22 30 -49z"/>
<path d="M27260 7560 l0 -5020 80 0 80 0 0 5020 0 5020 -80 0 -80 0 0 -5020z"/>
<path d="M27540 7560 l0 -5020 85 0 85 0 0 5020 0 5020 -85 0 -85 0 0 -5020z"/>
<path d="M27820 7560 l0 -5020 85 0 85 0 0 5020 0 5020 -85 0 -85 0 0 -5020z"/>
<path d="M28110 7560 l0 -5020 80 0 80 0 0 5020 0 5020 -80 0 -80 0 0 -5020z"/>
<path d="M28390 7560 l0 -5020 85 0 85 0 0 5020 0 5020 -85 0 -85 0 0 -5020z"/>
<path d="M28670 7560 l0 -5020 85 0 85 0 0 5020 0 5020 -85 0 -85 0 0 -5020z"/>
<path d="M28950 7560 l0 -5020 85 0 85 0 0 5020 0 5020 -85 0 -85 0 0 -5020z"/>
<path d="M32806 12528 c-17 -58 -107 -404 -161 -618 -32 -124 -86 -332 -224
-865 -29 -110 -208 -798 -397 -1530 -190 -731 -355 -1366 -368 -1410 -13 -44
-29 -108 -36 -142 -7 -35 -16 -63 -20 -63 -4 0 -11 -21 -15 -47 -9 -66 -33
-162 -50 -198 -7 -16 -23 -77 -35 -135 -11 -58 -50 -213 -84 -345 -76 -286
-96 -369 -96 -390 0 -13 159 -15 1545 -15 l1544 0 16 -57 c9 -32 18 -64 20
-70 4 -10 -319 -13 -1589 -13 l-1593 0 -12 -57 c-6 -31 -11 -62 -11 -70 0 -11
277 -13 1623 -13 l1623 0 17 -64 c9 -35 17 -67 17 -70 0 -3 -746 -6 -1658 -6
l-1658 0 -22 -62 c-12 -35 -22 -69 -22 -75 0 -10 350 -13 1701 -15 l1702 -3
18 -65 c10 -36 18 -66 19 -67 0 -2 -782 -3 -1739 -3 l-1738 0 -12 -57 c-6 -31
-11 -62 -11 -70 0 -11 301 -13 1768 -13 l1769 0 20 -75 20 -75 -1814 0 -1813
0 -10 -26 c-6 -14 -13 -43 -16 -65 l-7 -39 1846 0 1846 0 17 -57 c8 -32 18
-66 20 -75 5 -17 -91 -18 -1887 -20 l-1893 -3 -13 -50 c-7 -27 -13 -58 -13
-67 0 -17 98 -18 1924 -18 l1923 0 17 -58 c9 -32 16 -64 16 -70 0 -9 -456 -12
-1958 -12 l-1958 0 -12 -58 c-7 -32 -12 -64 -12 -70 0 -9 462 -13 1991 -14
l1992 -3 18 -65 c10 -36 18 -68 19 -72 0 -5 -917 -9 -2037 -10 l-2037 -3 -47
-180 c-27 -99 -75 -279 -108 -400 -33 -121 -150 -566 -261 -990 -111 -423
-204 -778 -206 -788 -5 -16 1 -18 72 -15 l77 3 125 486 125 487 76 5 c42 2 77
4 78 3 1 -1 -56 -221 -127 -490 -72 -268 -130 -490 -130 -492 0 -2 34 -4 75
-4 l74 0 9 32 c5 18 62 241 128 496 l119 462 72 0 c40 0 73 -1 73 -3 0 -1 -56
-221 -125 -487 -69 -267 -125 -489 -125 -493 0 -4 30 -7 67 -5 l67 3 130 493
130 492 79 0 c70 0 78 -2 73 -17 -15 -48 -246 -952 -246 -962 0 -7 23 -11 64
-11 53 0 66 3 70 18 3 9 62 231 131 492 70 261 128 476 129 478 2 1 35 2 74 0
l70 -3 -129 -485 c-71 -267 -129 -488 -129 -492 0 -5 33 -8 74 -8 68 0 74 2
80 23 3 12 60 235 127 494 l122 473 74 0 c66 0 74 -2 69 -17 -15 -49 -246
-954 -246 -963 0 -6 30 -10 73 -10 l74 0 126 491 c70 271 128 494 131 496 2 2
35 3 73 1 l70 -3 -126 -490 -127 -490 64 -3 c36 -2 66 -1 68 1 3 2 63 224 134
492 71 268 131 489 133 492 3 2 36 3 74 1 l69 -3 -127 -480 c-71 -264 -128
-486 -129 -492 0 -9 21 -13 75 -13 41 0 75 2 75 5 0 16 292 1133 299 1146 5 9
12 34 16 55 12 74 28 139 35 144 4 3 17 50 29 105 11 55 61 253 109 440 l89
340 1683 0 1683 0 296 -1117 296 -1118 77 0 76 0 -29 112 c-17 62 -610 2320
-1318 5018 l-1287 4905 -822 3 -821 2 -15 -52z m36 -1010 l-17 -63 -74 -3 -73
-3 6 28 c4 15 12 45 17 66 l10 37 74 0 73 0 -16 -62z m308 50 c0 -7 -6 -35
-13 -63 l-13 -50 -72 -3 c-82 -3 -81 -5 -57 76 l16 52 69 0 c50 0 70 -4 70
-12z m296 -5 c-3 -10 -10 -39 -17 -65 l-11 -48 -79 0 c-44 0 -79 3 -79 7 0 4
7 33 16 65 l17 58 79 0 c71 0 79 -2 74 -17z m284 5 c0 -7 -6 -35 -13 -63 l-13
-50 -72 -3 c-81 -3 -79 -5 -56 74 l15 54 70 0 c49 0 69 -4 69 -12z m300 1 c0
-6 -7 -35 -16 -65 l-15 -54 -70 0 c-49 0 -69 4 -69 13 0 11 15 75 25 105 6 16
145 17 145 1z m300 0 c0 -6 -7 -35 -16 -65 l-15 -54 -75 0 c-41 0 -74 2 -74 5
0 3 7 32 17 65 l16 60 74 0 c46 0 73 -4 73 -11z m249 -33 c21 -86 21 -86 -65
-86 -67 0 -75 2 -70 18 3 9 10 38 17 65 l11 47 48 0 48 0 11 -44z m-1793 -233
c-4 -16 -14 -52 -22 -80 l-15 -53 -69 0 c-39 0 -70 3 -70 8 0 4 7 40 17 80
l17 72 74 0 74 0 -6 -27z m300 10 c-3 -10 -10 -38 -16 -63 -21 -86 -14 -80
-95 -80 l-73 0 20 80 20 80 75 0 c66 0 74 -2 69 -17z m294 5 c0 -7 -8 -42 -18
-78 l-19 -65 -76 -3 c-53 -2 -77 1 -77 9 0 14 30 131 36 141 9 14 154 9 154
-4z m286 -5 c-3 -10 -10 -38 -16 -63 -21 -86 -14 -80 -94 -80 l-74 0 22 80 21
80 73 0 c65 0 73 -2 68 -17z m300 0 c-4 -9 -14 -45 -22 -80 l-16 -63 -75 0
c-66 0 -74 2 -69 17 4 9 14 45 22 80 l16 63 75 0 c66 0 74 -2 69 -17z m300 0
c-4 -9 -14 -45 -22 -80 l-16 -63 -74 0 c-55 0 -74 3 -74 13 0 11 21 93 35 135
3 8 29 12 81 12 67 0 75 -2 70 -17z m284 10 c0 -5 -9 -39 -18 -78 l-18 -70
-72 -3 c-56 -2 -72 0 -72 11 0 11 21 92 35 135 5 13 145 18 145 5z m689 -2298
c308 -1155 558 -2101 557 -2102 -2 -2 -507 -2 -1122 -1 l-1120 3 72 275 c131
505 217 834 241 930 127 495 785 3028 789 3040 8 19 -73 316 583 -2145z
m-2549 1913 c-20 -79 -180 -693 -356 -1365 l-318 -1223 -74 0 c-65 0 -73 2
-68 18 3 9 158 607 346 1327 188 721 345 1327 351 1348 l10 37 73 0 74 0 -38
-142z m330 135 c1 -5 -158 -619 -352 -1365 l-353 -1358 -72 0 c-40 0 -73 2
-73 5 0 5 699 2693 705 2713 5 13 145 18 145 5z m297 -5 c-2 -7 -158 -598
-346 -1313 -188 -715 -349 -1324 -357 -1352 l-15 -53 -75 0 c-67 0 -75 2 -70
18 3 9 159 607 346 1327 188 721 346 1327 351 1348 l10 37 80 0 c61 0 80 -3
76 -12z m283 0 c0 -11 -700 -2701 -703 -2704 -6 -5 -147 -15 -147 -11 0 6 697
2682 706 2710 4 14 17 17 75 17 45 0 69 -4 69 -12z m300 5 c0 -5 -158 -617
-352 -1360 l-353 -1353 -73 0 c-65 0 -73 2 -68 18 3 9 161 616 351 1347 190
732 348 1336 350 1343 5 13 145 18 145 5z m298 -10 c-2 -10 -161 -622 -354
-1360 l-349 -1343 -77 0 c-43 0 -78 4 -78 9 0 4 155 599 346 1322 190 723 350
1331 355 1352 l10 37 76 0 c67 0 75 -2 71 -17z m287 5 c-7 -20 -705 -2696
-705 -2702 0 -3 -34 -6 -76 -6 -67 0 -75 2 -70 18 7 22 706 2694 706 2699 0 1
34 3 75 3 55 0 73 -3 70 -12z m-2489 -2795 c-3 -10 -13 -48 -22 -85 l-16 -68
-75 0 c-66 0 -74 2 -69 18 3 9 13 47 22 85 l16 67 75 0 c66 0 74 -2 69 -17z
m281 -68 l-21 -85 -73 0 c-40 0 -73 3 -73 7 0 4 9 42 21 85 l21 78 73 0 72 0
-20 -85z m303 71 c0 -7 -4 -26 -10 -42 -5 -16 -14 -48 -20 -71 l-11 -43 -75 0
c-57 0 -75 3 -72 13 3 6 13 45 23 85 l19 72 73 0 c55 0 73 -3 73 -14z m276 4
l20 0 -20 -80 -21 -80 -72 0 c-40 0 -73 3 -73 6 0 4 10 43 22 86 l22 80 50 -6
c28 -3 60 -6 72 -6z m314 -12 c-1 -7 -9 -42 -19 -78 l-18 -65 -71 -3 c-40 -2
-72 0 -72 4 0 7 29 122 35 142 3 8 27 12 75 12 49 0 70 -4 70 -12z m300 5 c0
-5 -9 -39 -18 -78 l-18 -70 -81 -3 -81 -3 21 81 21 80 78 0 c43 0 78 -3 78 -7z
m280 0 c0 -5 -7 -41 -17 -80 l-17 -73 -74 0 -74 0 7 28 c3 15 13 51 21 80 l15
52 70 0 c38 0 69 -3 69 -7z m-353 -287 c-3 -8 -9 -31 -13 -50 l-6 -36 -79 0
c-86 0 -86 0 -68 63 l10 37 81 0 c65 0 79 -3 75 -14z m1248 -1273 c9 -32 18
-64 20 -70 3 -10 -15 -13 -69 -13 l-74 0 -16 65 c-9 35 -16 67 -16 70 0 3 31
5 70 5 l69 0 16 -57z m73 -270 c6 -27 14 -58 18 -71 6 -23 6 -23 -67 -20 l-73
3 -12 40 c-6 22 -14 52 -18 68 l-6 27 73 0 74 0 11 -47z m83 -313 c10 -36 18
-66 19 -67 0 -2 -33 -3 -74 -3 l-74 0 -16 65 c-9 35 -16 67 -16 70 0 3 32 5
72 3 l71 -3 18 -65z m73 -275 c9 -35 16 -69 16 -75 0 -6 -28 -10 -69 -10 l-70
0 -16 58 c-9 31 -18 65 -21 75 -5 15 3 17 69 17 l75 0 16 -65z m72 -272 c8
-32 18 -66 20 -75 5 -16 -3 -18 -69 -18 l-75 0 -16 65 c-9 35 -16 69 -16 75 0
6 28 10 70 10 l69 0 17 -57z m77 -293 c10 -33 17 -64 17 -70 0 -7 -26 -10 -72
-8 l-71 3 -18 65 c-10 36 -18 66 -19 68 0 1 33 2 73 2 l74 0 16 -60z m78 -290
c10 -36 18 -68 19 -72 0 -5 -33 -8 -74 -8 l-74 0 -16 65 c-9 35 -16 69 -16 75
0 7 25 10 72 8 l71 -3 18 -65z m-4308 -1350 l-15 -60 -78 0 -78 0 15 60 15 60
78 0 78 0 -15 -60z m290 0 l-15 -60 -75 0 c-66 0 -74 2 -69 18 3 9 10 36 16
60 l11 42 73 0 74 0 -15 -60z m307 51 c0 -5 -5 -32 -12 -60 l-11 -51 -79 0
c-71 0 -79 2 -74 18 2 9 10 36 17 60 l12 42 74 0 c40 0 73 -4 73 -9z m281 -51
l-16 -60 -72 0 c-40 0 -73 3 -73 6 0 3 7 30 16 60 l15 54 73 0 73 0 -16 -60z
m290 0 l-16 -60 -73 0 c-65 0 -73 2 -68 18 3 9 10 36 16 60 l11 42 73 0 73 0
-16 -60z m304 24 c-15 -82 -17 -84 -95 -84 -38 0 -70 3 -70 8 0 7 18 76 25
100 3 8 28 12 76 12 l71 0 -7 -36z m290 0 c-15 -82 -17 -84 -95 -84 -38 0 -70
3 -70 8 0 7 18 76 25 100 3 8 28 12 76 12 l71 0 -7 -36z"/>
<path d="M34612 12568 c2 -7 596 -2266 1319 -5020 l1314 -5008 74 0 74 0 -7
30 c-6 32 -2587 9868 -2612 9958 l-15 52 -76 0 c-56 0 -74 -3 -71 -12z"/>
<path d="M34915 12553 c3 -16 596 -2272 1316 -5015 720 -2743 1309 -4990 1309
-4993 0 -3 34 -5 76 -5 74 0 76 1 72 22 -3 13 -591 2255 -1307 4983 -716 2728
-1307 4977 -1312 4998 l-10 37 -75 0 -76 0 7 -27z"/>
<path d="M35210 12570 c0 -6 2442 -9316 2621 -9992 l10 -38 74 0 c41 0 75 2
75 5 0 5 -2615 9908 -2636 9983 l-15 52 -64 0 c-36 0 -65 -4 -65 -10z"/>
<path d="M35490 12575 c0 -6 2614 -9906 2636 -9982 l15 -53 64 0 c36 0 65 4
65 9 0 7 -2303 8788 -2621 9994 l-10 37 -74 0 c-41 0 -75 -2 -75 -5z"/>
<path d="M35790 12571 c0 -4 588 -2247 1306 -4982 718 -2736 1310 -4991 1315
-5011 l10 -38 75 0 76 0 -7 27 c-3 16 -593 2262 -1310 4993 -717 2731 -1307
4977 -1310 4993 -7 26 -9 27 -81 27 -41 0 -74 -4 -74 -9z"/>
<path d="M36096 12533 c7 -27 594 -2262 1304 -4968 710 -2706 1298 -4944 1306
-4972 l15 -53 75 0 c67 0 75 2 70 18 -3 9 -597 2260 -1321 5002 -724 2742
-1318 4993 -1321 5003 -4 14 -17 17 -74 17 l-68 0 14 -47z"/>
<path d="M36417 12448 c19 -73 612 -2331 1317 -5018 l1282 -4885 67 -3 c37 -2
67 1 67 6 0 5 -588 2248 -1306 4983 -718 2736 -1310 4991 -1315 5012 l-10 37
-69 0 -68 0 35 -132z"/>
<path d="M54493 9568 l3 -3013 22 -155 c136 -944 500 -1755 1092 -2435 131
-150 398 -407 550 -528 140 -112 443 -319 589 -401 497 -283 981 -435 1546
-486 142 -13 568 -13 710 0 473 43 871 151 1271 345 488 236 879 517 1254 901
682 699 1118 1608 1251 2611 19 145 21 231 29 1063 5 498 11 1851 14 3008 l5
2102 -1074 0 -1075 0 0 -2907 c0 -1958 -3 -2936 -10 -2993 -50 -409 -221 -824
-484 -1175 -270 -358 -639 -634 -1009 -754 -410 -132 -890 -100 -1261 86 -436
218 -801 598 -1036 1078 -91 184 -138 309 -179 468 -66 255 -64 195 -71 1612
-4 710 -8 2031 -9 2938 l-1 1647 -1065 0 -1065 0 3 -3012z m277 1717 l0 -85
-60 0 -60 0 0 85 0 85 60 0 60 0 0 -85z m280 0 l0 -85 -55 0 -55 0 0 85 0 85
55 0 55 0 0 -85z m280 0 l0 -85 -55 0 -55 0 0 85 0 85 55 0 55 0 0 -85z m290
0 l0 -85 -65 0 -65 0 0 85 0 85 65 0 65 0 0 -85z m280 0 l0 -85 -65 0 -65 0 0
85 0 85 65 0 65 0 0 -85z m280 0 l0 -85 -65 0 -65 0 0 85 0 85 65 0 65 0 0
-85z m280 0 l0 -85 -60 0 -60 0 0 85 0 85 60 0 60 0 0 -85z m4510 0 l0 -85
-60 0 -60 0 0 85 0 85 60 0 60 0 0 -85z m280 0 l0 -85 -60 0 -60 0 0 85 0 85
60 0 60 0 0 -85z m280 0 l0 -85 -55 0 -55 0 0 85 0 85 55 0 55 0 0 -85z m280
0 l0 -85 -55 0 -55 0 0 85 0 85 55 0 55 0 0 -85z m290 0 l0 -85 -60 0 -60 0 0
85 0 85 60 0 60 0 0 -85z m280 0 l0 -85 -60 0 -60 0 0 85 0 85 60 0 60 0 0
-85z m280 0 l0 -85 -60 0 -60 0 0 85 0 85 60 0 60 0 0 -85z m-7887 -2417 c3
-2480 -1 -2305 62 -2653 212 -1172 931 -2237 1926 -2855 469 -292 897 -445
1459 -522 130 -18 730 -18 860 0 549 75 952 216 1413 494 1018 613 1756 1693
1972 2883 57 317 57 304 65 1510 4 616 8 1634 9 2263 l1 1142 60 0 61 0 -4
-2267 c-3 -2487 1 -2309 -62 -2658 -121 -665 -415 -1334 -826 -1881 -562 -747
-1372 -1303 -2205 -1513 -532 -134 -1167 -145 -1704 -29 -872 188 -1713 748
-2316 1543 -412 543 -722 1244 -834 1885 -57 323 -53 162 -57 2638 l-4 2282
60 0 60 0 4 -2262z m277 115 c0 -2147 2 -2294 36 -2548 145 -1094 801 -2162
1695 -2763 496 -333 996 -513 1561 -563 195 -17 626 -6 798 20 368 56 653 146
970 305 487 245 896 579 1245 1016 414 519 716 1175 830 1805 59 329 57 253
65 2010 4 891 8 1900 9 2243 l1 622 60 0 61 0 -4 -2247 c-3 -2443 0 -2288 -57
-2613 -97 -549 -332 -1134 -643 -1600 -548 -820 -1378 -1408 -2270 -1605 -270
-59 -373 -69 -752 -69 -284 -1 -373 3 -470 17 -400 59 -707 153 -1033 316
-787 394 -1394 1014 -1798 1835 -273 555 -411 1101 -417 1656 -1 91 -1 1098 1
2238 l2 2072 55 0 55 0 0 -2147z m280 50 c0 -1283 4 -2166 10 -2273 23 -400
101 -751 247 -1120 323 -816 862 -1451 1578 -1861 356 -204 732 -327 1140
-374 151 -17 504 -20 656 -5 598 61 1133 287 1649 699 133 106 374 344 494
487 465 556 754 1234 842 1974 14 118 17 405 24 2230 4 1152 8 2150 9 2218 l1
122 60 0 61 0 -4 -2227 c-3 -2026 -5 -2239 -20 -2353 -41 -299 -93 -528 -179
-780 -290 -853 -838 -1556 -1570 -2013 -444 -278 -872 -427 -1371 -477 -178
-18 -616 -8 -778 19 -373 60 -689 168 -1014 344 -1016 552 -1725 1570 -1917
2752 l-23 140 -2 2298 -3 2297 55 0 55 0 0 -2097z m293 -160 c3 -2465 -1
-2277 58 -2573 88 -438 300 -924 573 -1314 240 -342 549 -644 881 -861 363
-237 718 -373 1140 -437 123 -18 627 -18 750 1 325 49 552 119 840 261 186 91
408 231 565 356 114 90 398 376 491 494 367 464 611 984 719 1530 57 290 54
141 57 2568 l4 2232 54 0 55 0 2 -2092 c2 -1151 0 -2168 -4 -2260 -31 -717
-321 -1457 -812 -2072 -106 -133 -353 -380 -491 -490 -391 -313 -833 -525
-1281 -616 -342 -68 -806 -68 -1148 0 -449 91 -885 300 -1281 616 -140 112
-385 357 -499 499 -470 589 -757 1333 -790 2050 -3 66 -8 1075 -12 2243 l-6
2122 66 0 66 0 3 -2257z m280 15 c3 -2240 3 -2243 24 -2373 82 -497 253 -937
514 -1320 360 -529 898 -944 1464 -1130 252 -83 460 -115 750 -115 212 0 361
15 543 56 691 154 1344 650 1757 1333 181 301 333 683 400 1006 62 304 58 147
62 2573 l4 2212 54 0 55 0 0 -2179 c0 -1437 -4 -2214 -10 -2282 -42 -411 -159
-795 -364 -1194 -177 -346 -374 -615 -633 -866 -211 -204 -430 -362 -685 -494
-339 -175 -624 -254 -1005 -276 -686 -41 -1216 120 -1779 542 -143 107 -348
299 -465 434 -470 547 -756 1241 -798 1940 -6 102 -12 1015 -15 2273 l-4 2102
64 0 64 0 3 -2242z m280 20 c3 -2417 0 -2260 57 -2538 80 -386 271 -806 514
-1133 315 -424 773 -766 1226 -916 319 -106 773 -128 1125 -56 519 106 1045
457 1421 947 221 288 406 667 499 1020 89 339 95 439 95 1518 0 488 3 1448 7
2133 l6 1247 59 0 58 0 0 -2152 c0 -1378 -4 -2193 -10 -2263 -45 -484 -221
-974 -502 -1395 -132 -198 -207 -290 -377 -461 -162 -161 -263 -245 -426 -353
-329 -218 -616 -330 -965 -377 -143 -19 -528 -16 -674 5 -493 71 -944 313
-1357 725 -239 240 -403 466 -550 761 -191 381 -293 759 -319 1168 -5 81 -9
948 -9 1927 -1 979 -4 1923 -7 2098 l-7 317 66 0 66 0 4 -2222z m277 115 c0
-1351 4 -2160 11 -2252 31 -444 184 -882 444 -1271 329 -493 825 -853 1315
-954 220 -45 594 -48 805 -6 231 45 476 149 690 292 573 382 984 1056 1091
1788 15 104 18 324 24 2210 4 1152 8 2141 9 2198 l1 102 60 0 61 0 -4 -2212
-3 -2213 -21 -133 c-81 -492 -276 -933 -580 -1312 -85 -107 -273 -296 -377
-380 -281 -227 -603 -387 -904 -449 -239 -49 -616 -50 -852 -1 -234 48 -489
158 -715 307 -584 386 -1008 1054 -1136 1793 -21 119 -22 166 -29 945 -5 451
-8 1458 -9 2238 l-1 1417 60 0 60 0 0 -2107z"/>
<path d="M67293 12573 l-1273 -3 0 -1390 0 -1390 -65 0 -65 0 0 1390 0 1390
-75 0 -75 0 0 -1390 0 -1390 -65 0 -65 0 0 1390 0 1390 -75 0 -75 0 0 -1390 0
-1390 -60 0 -60 0 0 1390 0 1390 -85 0 -85 0 0 -1390 0 -1390 -55 0 -55 0 0
1390 0 1390 -85 0 -85 0 0 -1390 0 -1390 -60 0 -60 0 0 1390 0 1390 -80 0 -80
0 0 -1390 0 -1390 -60 0 -60 0 0 1390 0 1390 -80 0 -80 0 0 -1390 0 -1390 -60
0 -60 0 0 1390 0 1390 -85 0 -85 0 0 -2210 0 -2210 878 0 c1261 0 3566 19
3707 30 397 31 709 255 895 643 97 201 135 419 112 645 -15 153 -41 243 -107
377 -62 126 -114 198 -220 307 -140 143 -280 229 -460 285 l-90 28 -552 3
-553 3 0 59 0 60 534 0 c563 0 593 -2 726 -48 131 -45 295 -146 425 -259 199
-173 346 -428 406 -703 19 -86 24 -135 24 -270 0 -183 -12 -266 -57 -410 -65
-205 -152 -348 -307 -501 -163 -161 -353 -279 -532 -329 -41 -11 -123 -25
-184 -30 -68 -6 -979 -10 -2377 -10 l-2268 0 0 -90 0 -91 2333 4 2332 3 97 22
c300 69 556 221 767 458 379 425 460 1132 191 1664 -191 376 -555 658 -959
740 -92 19 -137 20 -625 20 l-526 0 0 71 0 71 553 -5 c452 -4 566 -8 627 -21
515 -109 945 -510 1139 -1060 48 -136 71 -264 78 -433 15 -376 -82 -708 -298
-1023 -218 -319 -520 -530 -874 -613 l-90 -21 -2372 -3 -2373 -3 0 -85 0 -85
2233 0 c1228 0 2295 5 2372 10 223 14 366 51 563 145 492 236 842 688 958
1239 32 151 43 430 25 582 -37 297 -133 560 -292 800 -101 153 -302 352 -459
456 -182 122 -364 203 -560 251 -80 19 -119 21 -657 24 l-573 4 0 70 0 70 578
-4 c507 -3 586 -5 652 -21 397 -93 768 -330 1032 -661 185 -232 329 -543 388
-841 31 -154 39 -461 16 -628 -61 -430 -251 -815 -546 -1105 -196 -193 -447
-348 -699 -431 -154 -51 -248 -70 -416 -80 -77 -5 -1143 -10 -2377 -10 l-2238
0 0 -85 0 -85 2303 0 c1475 0 2343 4 2417 10 395 35 793 231 1104 544 348 352
573 821 615 1286 36 387 -13 730 -150 1049 -258 601 -776 1051 -1369 1191
-140 32 -290 40 -812 40 l-498 0 0 66 0 65 598 -4 c575 -3 601 -4 697 -26 629
-141 1137 -544 1438 -1139 162 -319 223 -561 234 -927 11 -362 -30 -625 -144
-915 -268 -687 -885 -1222 -1558 -1353 l-110 -21 -2382 -3 -2383 -4 0 -81 0
-81 2350 7 c1394 4 2386 11 2438 17 573 63 1133 418 1507 954 244 351 389 737
426 1139 15 159 6 511 -15 648 -55 351 -215 730 -433 1027 -338 460 -823 781
-1355 898 l-123 26 -592 4 -593 4 0 65 0 65 613 -4 612 -3 125 -28 c346 -75
685 -239 967 -467 496 -401 860 -1067 923 -1688 13 -133 13 -457 -1 -597 -42
-439 -221 -884 -508 -1269 -41 -55 -143 -168 -225 -251 -216 -216 -409 -354
-671 -480 -149 -71 -236 -104 -373 -139 -243 -63 -54 -58 -2679 -62 l-2393 -4
0 -84 0 -85 2298 0 c1472 0 2345 4 2432 10 479 37 956 254 1372 624 419 373
746 931 858 1466 41 196 53 356 47 645 -7 351 -36 533 -129 804 -323 941
-1145 1656 -2033 1772 -61 7 -275 11 -662 10 l-573 -2 0 70 0 71 503 0 c535 0
708 -8 879 -40 356 -67 701 -226 1038 -478 137 -103 386 -347 498 -489 330
-418 539 -912 597 -1412 20 -169 20 -574 0 -745 -39 -329 -125 -603 -289 -921
-253 -490 -605 -882 -1031 -1150 -211 -133 -502 -255 -725 -305 -254 -57 -101
-54 -2692 -57 l-2388 -4 0 -84 0 -85 2298 0 c2301 0 2473 2 2667 36 469 80
942 320 1335 676 451 408 814 1038 934 1620 48 233 59 371 53 708 -5 311 -12
387 -57 593 -125 574 -487 1195 -930 1595 -382 346 -861 593 -1305 671 -166
30 -239 33 -802 31 l-583 -1 0 76 0 76 628 -3 c601 -4 632 -5 751 -27 479 -88
919 -299 1316 -633 122 -102 332 -321 431 -449 331 -426 557 -921 643 -1409
35 -194 42 -294 42 -585 0 -279 -7 -385 -37 -565 -121 -718 -551 -1445 -1131
-1912 -407 -329 -829 -521 -1317 -601 -131 -21 -132 -21 -2533 -24 l-2403 -4
0 -1834 0 -1835 85 0 85 0 0 1020 0 1020 60 0 60 0 0 -1020 0 -1020 80 0 80 0
0 1020 0 1020 60 0 60 0 0 -1020 0 -1020 80 0 80 0 0 1020 0 1020 60 0 60 0 0
-1020 0 -1020 85 0 85 0 0 1020 0 1020 55 0 55 0 0 -1020 0 -1020 85 0 85 0 0
1020 0 1020 60 0 60 0 0 -1020 0 -1020 75 0 75 0 0 1020 0 1020 65 0 65 0 0
-1020 0 -1020 75 0 75 0 0 1020 0 1020 65 0 65 0 0 -1020 0 -1020 75 0 75 0 0
1750 0 1750 1025 0 1024 0 51 -61 c674 -810 1143 -2080 1176 -3184 3 -93 7
-189 10 -213 l5 -42 81 0 81 0 -7 166 c-26 641 -163 1301 -401 1929 -29 77
-63 162 -74 189 -12 27 -20 50 -19 51 2 1 31 5 65 8 l62 5 51 -129 c195 -495
338 -1079 399 -1634 17 -152 41 -480 41 -561 0 -23 2 -24 80 -24 l80 0 0 108
c0 168 -28 482 -66 737 -66 455 -217 1018 -382 1427 l-39 97 46 6 c25 4 52 7
60 8 18 2 53 -81 137 -328 206 -598 322 -1200 356 -1832 l12 -223 84 0 83 0
-5 53 c-3 28 -8 106 -11 172 -31 632 -197 1445 -418 2045 l-54 145 59 14 c33
7 61 11 62 10 2 -2 29 -73 60 -158 232 -626 388 -1421 413 -2104 l6 -177 84 0
83 0 0 28 c0 57 -21 353 -36 497 -63 629 -207 1289 -396 1808 -27 76 -48 140
-47 141 2 2 27 10 56 18 l52 15 45 -122 c240 -650 413 -1565 439 -2315 l2 -65
83 -3 82 -3 0 55 c0 76 -18 332 -36 516 -60 618 -213 1319 -399 1830 -30 84
-55 154 -55 156 0 8 95 44 105 40 19 -7 170 -474 234 -726 131 -509 219 -1054
251 -1540 6 -91 13 -202 16 -247 l6 -83 79 0 79 0 0 83 c0 167 -34 543 -76
842 -81 573 -228 1172 -401 1628 -25 65 -43 120 -41 121 20 15 100 57 103 54
8 -8 51 -126 111 -303 230 -676 380 -1495 420 -2292 l7 -133 75 0 75 0 -7 148
c-44 919 -235 1905 -509 2614 l-26 66 47 36 46 36 23 -57 c298 -730 509 -1759
549 -2685 l7 -158 75 0 75 0 -7 174 c-38 983 -272 2097 -606 2881 -149 350
-445 910 -566 1072 l-24 31 83 70 c478 407 873 1032 1043 1650 143 523 150
1217 18 1742 -114 455 -331 891 -632 1270 -98 122 -370 394 -492 492 -456 362
-962 581 -1470 637 -149 16 -285 17 -1637 14z m-3 -228 l0 -75 -55 0 -55 0 0
75 0 75 55 0 55 0 0 -75z m280 0 l0 -75 -80 0 -80 0 0 75 0 75 80 0 80 0 0
-75z m-280 -305 l0 -70 -55 0 -55 0 0 70 0 70 55 0 55 0 0 -70z m280 0 l0 -70
-80 0 -80 0 0 70 0 70 80 0 80 0 0 -70z m0 -305 l0 -65 -80 0 -80 0 0 65 0 65
80 0 80 0 0 -65z m0 -300 l0 -65 -80 0 -80 0 0 65 0 65 80 0 80 0 0 -65z
m-280 -305 l0 -70 -55 0 -55 0 0 70 0 70 55 0 55 0 0 -70z m280 0 l0 -70 -80
0 -80 0 0 70 0 70 80 0 80 0 0 -70z m-280 -300 l0 -70 -55 0 -55 0 0 70 0 70
55 0 55 0 0 -70z m280 0 l0 -70 -80 0 -80 0 0 70 0 70 80 0 80 0 0 -70z m0
-300 l0 -60 -80 0 -80 0 0 60 0 60 80 0 80 0 0 -60z m1207 -256 c291 -64 576
-344 672 -657 57 -188 50 -435 -20 -638 -92 -269 -302 -497 -544 -590 -171
-66 -85 -62 -1462 -66 l-1253 -4 0 985 0 986 1203 3 c661 1 1234 1 1272 -1 39
-2 98 -10 132 -18z m-4447 -639 l0 -85 -60 0 -60 0 0 85 0 85 60 0 60 0 0 -85z
m280 0 l0 -85 -60 0 -60 0 0 85 0 85 60 0 60 0 0 -85z m280 0 l0 -85 -60 0
-60 0 0 85 0 85 60 0 60 0 0 -85z m280 0 l0 -85 -55 0 -55 0 0 85 0 85 55 0
55 0 0 -85z m290 0 l0 -85 -60 0 -60 0 0 85 0 85 60 0 60 0 0 -85z m280 0 l0
-85 -65 0 -65 0 0 85 0 85 65 0 65 0 0 -85z m280 0 l0 -85 -65 0 -65 0 0 85 0
85 65 0 65 0 0 -85z m-1690 -4910 l0 -85 -60 0 -60 0 0 85 0 85 60 0 60 0 0
-85z m280 0 l0 -85 -60 0 -60 0 0 85 0 85 60 0 60 0 0 -85z m280 0 l0 -85 -60
0 -60 0 0 85 0 85 60 0 60 0 0 -85z m280 0 l0 -85 -55 0 -55 0 0 85 0 85 55 0
55 0 0 -85z m290 0 l0 -85 -60 0 -60 0 0 85 0 85 60 0 60 0 0 -85z m280 0 l0
-85 -65 0 -65 0 0 85 0 85 65 0 65 0 0 -85z m280 0 l0 -85 -65 0 -65 0 0 85 0
85 65 0 65 0 0 -85z"/>
<path d="M72750 12510 l0 -70 3465 0 3465 0 0 70 0 70 -3465 0 -3465 0 0 -70z"/>
<path d="M83626 12528 c-17 -58 -107 -404 -161 -618 -32 -124 -86 -332 -224
-865 -29 -110 -208 -798 -397 -1530 -190 -731 -355 -1366 -368 -1410 -13 -44
-29 -108 -36 -142 -7 -35 -16 -63 -20 -63 -4 0 -11 -21 -15 -47 -9 -66 -33
-162 -50 -198 -7 -16 -23 -77 -35 -135 -11 -58 -50 -213 -84 -345 -76 -286
-96 -369 -96 -390 0 -13 159 -15 1545 -15 l1544 0 16 -57 c9 -32 18 -64 20
-70 4 -10 -319 -13 -1589 -13 l-1593 0 -12 -57 c-6 -31 -11 -62 -11 -70 0 -11
277 -13 1623 -13 l1623 0 17 -64 c9 -35 17 -67 17 -70 0 -3 -746 -6 -1658 -6
l-1658 0 -22 -62 c-12 -35 -22 -69 -22 -75 0 -10 350 -13 1701 -15 l1702 -3
18 -65 c10 -36 18 -66 19 -67 0 -2 -782 -3 -1739 -3 l-1738 0 -12 -57 c-6 -31
-11 -62 -11 -70 0 -11 301 -13 1768 -13 l1769 0 20 -75 20 -75 -1814 0 -1813
0 -10 -26 c-6 -14 -13 -43 -16 -65 l-7 -39 1846 0 1846 0 17 -57 c8 -32 18
-66 20 -75 5 -17 -91 -18 -1887 -20 l-1893 -3 -13 -50 c-7 -27 -13 -58 -13
-67 0 -17 98 -18 1924 -18 l1923 0 17 -58 c9 -32 16 -64 16 -70 0 -9 -456 -12
-1958 -12 l-1958 0 -12 -58 c-7 -32 -12 -64 -12 -70 0 -9 462 -13 1991 -14
l1992 -3 18 -65 c10 -36 18 -68 19 -72 0 -5 -917 -9 -2037 -10 l-2037 -3 -47
-180 c-27 -99 -75 -279 -108 -400 -33 -121 -150 -566 -261 -990 -111 -423
-204 -778 -206 -788 -5 -16 1 -18 72 -15 l77 3 126 490 126 490 78 3 c72 3 78
1 73 -15 -9 -31 -256 -964 -256 -969 0 -2 34 -4 75 -4 l74 0 9 32 c5 18 62
241 128 496 l119 462 72 0 c40 0 73 -1 73 -3 0 -1 -56 -221 -125 -487 -69
-267 -125 -489 -125 -493 0 -4 30 -7 67 -5 l67 3 130 493 130 492 79 0 c70 0
78 -2 73 -17 -15 -48 -246 -952 -246 -962 0 -7 23 -11 64 -11 53 0 66 3 70 18
3 9 62 231 131 492 70 261 128 476 129 478 2 1 35 2 74 0 l70 -3 -129 -485
c-71 -267 -129 -488 -129 -492 0 -5 33 -8 74 -8 68 0 74 2 80 23 3 12 60 235
127 494 l122 473 74 0 c66 0 74 -2 69 -17 -15 -49 -246 -954 -246 -963 0 -6
30 -10 73 -10 l74 0 126 491 c70 271 128 494 131 496 2 2 35 3 73 1 l70 -3
-126 -490 -127 -490 64 -3 c36 -2 66 -1 68 1 3 2 63 224 134 492 71 268 131
489 133 492 3 2 36 3 74 1 l69 -3 -127 -480 c-71 -264 -128 -486 -129 -492 0
-9 21 -13 75 -13 41 0 75 2 75 5 0 16 292 1133 299 1146 5 9 12 34 16 55 12
74 28 139 35 144 4 3 17 50 29 105 11 55 61 253 109 440 l89 340 1683 0 1683
0 296 -1117 296 -1118 77 0 76 0 -29 112 c-17 62 -610 2320 -1318 5018 l-1287
4905 -822 3 -821 2 -15 -52z m36 -1010 l-17 -63 -74 -3 -73 -3 6 28 c4 15 12
45 17 66 l10 37 74 0 73 0 -16 -62z m308 50 c0 -7 -6 -35 -13 -63 l-13 -50
-72 -3 c-82 -3 -81 -5 -57 76 l16 52 69 0 c50 0 70 -4 70 -12z m296 -5 c-3
-10 -10 -39 -17 -65 l-11 -48 -79 0 c-44 0 -79 3 -79 7 0 4 7 33 16 65 l17 58
79 0 c71 0 79 -2 74 -17z m284 5 c0 -7 -6 -35 -13 -63 l-13 -50 -72 -3 c-81
-3 -79 -5 -56 74 l15 54 70 0 c49 0 69 -4 69 -12z m300 1 c0 -6 -7 -35 -16
-65 l-15 -54 -70 0 c-49 0 -69 4 -69 13 0 11 15 75 25 105 6 16 145 17 145 1z
m300 0 c0 -6 -7 -35 -16 -65 l-15 -54 -75 0 c-41 0 -74 2 -74 5 0 3 7 32 17
65 l16 60 74 0 c46 0 73 -4 73 -11z m249 -33 c21 -86 21 -86 -65 -86 -67 0
-75 2 -70 18 3 9 10 38 17 65 l11 47 48 0 48 0 11 -44z m-1793 -233 c-4 -16
-14 -52 -22 -80 l-15 -53 -69 0 c-39 0 -70 3 -70 8 0 4 7 40 17 80 l17 72 74
0 74 0 -6 -27z m300 10 c-3 -10 -10 -38 -16 -63 -21 -86 -14 -80 -95 -80 l-73
0 20 80 20 80 75 0 c66 0 74 -2 69 -17z m294 5 c0 -7 -8 -42 -18 -78 l-19 -65
-76 -3 c-53 -2 -77 1 -77 9 0 14 30 131 36 141 9 14 154 9 154 -4z m286 -5
c-3 -10 -10 -38 -16 -63 -21 -86 -14 -80 -94 -80 l-74 0 22 80 21 80 73 0 c65
0 73 -2 68 -17z m300 0 c-4 -9 -14 -45 -22 -80 l-16 -63 -75 0 c-66 0 -74 2
-69 17 4 9 14 45 22 80 l16 63 75 0 c66 0 74 -2 69 -17z m300 0 c-4 -9 -14
-45 -22 -80 l-16 -63 -74 0 c-55 0 -74 3 -74 13 0 11 21 93 35 135 3 8 29 12
81 12 67 0 75 -2 70 -17z m284 10 c0 -5 -9 -39 -18 -78 l-18 -70 -72 -3 c-56
-2 -72 0 -72 11 0 11 21 92 35 135 5 13 145 18 145 5z m689 -2298 c308 -1155
558 -2101 557 -2102 -2 -2 -507 -2 -1122 -1 l-1120 3 72 275 c131 505 217 834
241 930 127 495 785 3028 789 3040 8 19 -73 316 583 -2145z m-2549 1913 c-20
-79 -180 -693 -356 -1365 l-318 -1223 -74 0 c-65 0 -73 2 -68 18 3 9 158 607
346 1327 188 721 345 1327 351 1348 l10 37 73 0 74 0 -38 -142z m330 135 c1
-5 -158 -619 -352 -1365 l-353 -1358 -72 0 c-40 0 -73 2 -73 5 0 5 699 2693
705 2713 5 13 145 18 145 5z m297 -5 c-2 -7 -158 -598 -346 -1313 -188 -715
-349 -1324 -357 -1352 l-15 -53 -75 0 c-67 0 -75 2 -70 18 3 9 159 607 346
1327 188 721 346 1327 351 1348 l10 37 80 0 c61 0 80 -3 76 -12z m283 0 c0
-11 -700 -2701 -703 -2704 -6 -5 -147 -15 -147 -11 0 6 697 2682 706 2710 4
14 17 17 75 17 45 0 69 -4 69 -12z m300 5 c0 -5 -158 -617 -352 -1360 l-353
-1353 -73 0 c-65 0 -73 2 -68 18 3 9 161 616 351 1347 190 732 348 1336 350
1343 5 13 145 18 145 5z m298 -10 c-2 -10 -161 -622 -354 -1360 l-349 -1343
-77 0 c-43 0 -78 4 -78 9 0 4 155 599 346 1322 190 723 350 1331 355 1352 l10
37 76 0 c67 0 75 -2 71 -17z m287 5 c-7 -20 -705 -2696 -705 -2702 0 -3 -34
-6 -76 -6 -67 0 -75 2 -70 18 7 22 706 2694 706 2699 0 1 34 3 75 3 55 0 73
-3 70 -12z m-2489 -2795 c-3 -10 -13 -48 -22 -85 l-16 -68 -75 0 c-66 0 -74 2
-69 18 3 9 13 47 22 85 l16 67 75 0 c66 0 74 -2 69 -17z m281 -68 l-21 -85
-73 0 c-40 0 -73 3 -73 7 0 4 9 42 21 85 l21 78 73 0 72 0 -20 -85z m303 71
c0 -7 -4 -26 -10 -42 -5 -16 -14 -48 -20 -71 l-11 -43 -75 0 c-57 0 -75 3 -72
13 3 6 13 45 23 85 l19 72 73 0 c55 0 73 -3 73 -14z m276 4 l20 0 -20 -80 -21
-80 -72 0 c-40 0 -73 3 -73 6 0 4 10 43 22 86 l22 80 50 -6 c28 -3 60 -6 72
-6z m314 -12 c-1 -7 -9 -42 -19 -78 l-18 -65 -71 -3 c-40 -2 -72 0 -72 4 0 7
29 122 35 142 3 8 27 12 75 12 49 0 70 -4 70 -12z m300 5 c0 -5 -9 -39 -18
-78 l-18 -70 -81 -3 -81 -3 21 81 21 80 78 0 c43 0 78 -3 78 -7z m280 0 c0 -5
-7 -41 -17 -80 l-17 -73 -74 0 -74 0 7 28 c3 15 13 51 21 80 l15 52 70 0 c38
0 69 -3 69 -7z m-353 -287 c-3 -8 -9 -31 -13 -50 l-6 -36 -79 0 c-86 0 -86 0
-68 63 l10 37 81 0 c65 0 79 -3 75 -14z m1248 -1273 c9 -32 18 -64 20 -70 3
-10 -15 -13 -69 -13 l-74 0 -16 65 c-9 35 -16 67 -16 70 0 3 31 5 70 5 l69 0
16 -57z m73 -270 c6 -27 14 -58 18 -71 6 -23 6 -23 -67 -20 l-73 3 -12 40 c-6
22 -14 52 -18 68 l-6 27 73 0 74 0 11 -47z m83 -313 c10 -36 18 -66 19 -67 0
-2 -33 -3 -74 -3 l-74 0 -16 65 c-9 35 -16 67 -16 70 0 3 32 5 72 3 l71 -3 18
-65z m73 -275 c9 -35 16 -69 16 -75 0 -6 -28 -10 -69 -10 l-70 0 -16 58 c-9
31 -18 65 -21 75 -5 15 3 17 69 17 l75 0 16 -65z m72 -272 c8 -32 18 -66 20
-75 5 -16 -3 -18 -69 -18 l-75 0 -16 65 c-9 35 -16 69 -16 75 0 6 28 10 70 10
l69 0 17 -57z m77 -293 c10 -33 17 -64 17 -70 0 -7 -26 -10 -72 -8 l-71 3 -18
65 c-10 36 -18 66 -19 68 0 1 33 2 73 2 l74 0 16 -60z m78 -290 c10 -36 18
-68 19 -72 0 -5 -33 -8 -74 -8 l-74 0 -16 65 c-9 35 -16 69 -16 75 0 7 25 10
72 8 l71 -3 18 -65z m-4308 -1350 l-15 -60 -78 0 -78 0 15 60 15 60 78 0 78 0
-15 -60z m290 0 l-15 -60 -75 0 c-66 0 -74 2 -69 18 3 9 10 36 16 60 l11 42
73 0 74 0 -15 -60z m307 51 c0 -5 -5 -32 -12 -60 l-11 -51 -79 0 c-71 0 -79 2
-74 18 2 9 10 36 17 60 l12 42 74 0 c40 0 73 -4 73 -9z m281 -51 l-16 -60 -72
0 c-40 0 -73 3 -73 6 0 3 7 30 16 60 l15 54 73 0 73 0 -16 -60z m290 0 l-16
-60 -73 0 c-65 0 -73 2 -68 18 3 9 10 36 16 60 l11 42 73 0 73 0 -16 -60z
m304 24 c-15 -82 -17 -84 -95 -84 -38 0 -70 3 -70 8 0 7 18 76 25 100 3 8 28
12 76 12 l71 0 -7 -36z m290 0 c-15 -82 -17 -84 -95 -84 -38 0 -70 3 -70 8 0
7 18 76 25 100 3 8 28 12 76 12 l71 0 -7 -36z"/>
<path d="M85432 12568 c2 -7 596 -2266 1319 -5020 l1314 -5008 74 0 74 0 -7
30 c-6 32 -2587 9868 -2612 9958 l-15 52 -76 0 c-56 0 -74 -3 -71 -12z"/>
<path d="M85735 12553 c3 -16 596 -2272 1316 -5015 720 -2743 1309 -4990 1309
-4993 0 -3 34 -5 76 -5 74 0 76 1 72 22 -3 13 -591 2255 -1307 4983 -716 2728
-1307 4977 -1312 4998 l-10 37 -75 0 -76 0 7 -27z"/>
<path d="M86030 12570 c0 -6 2442 -9316 2621 -9992 l10 -38 74 0 c41 0 75 2
75 5 0 5 -2615 9908 -2636 9983 l-15 52 -64 0 c-36 0 -65 -4 -65 -10z"/>
<path d="M86310 12575 c0 -6 2614 -9906 2636 -9982 l15 -53 64 0 c36 0 65 4
65 9 0 7 -2303 8788 -2621 9994 l-10 37 -74 0 c-41 0 -75 -2 -75 -5z"/>
<path d="M86610 12571 c0 -4 588 -2247 1306 -4982 718 -2736 1310 -4991 1315
-5011 l10 -38 75 0 76 0 -7 27 c-3 16 -593 2262 -1310 4993 -717 2731 -1307
4977 -1310 4993 -7 26 -9 27 -81 27 -41 0 -74 -4 -74 -9z"/>
<path d="M86916 12533 c7 -27 594 -2262 1304 -4968 710 -2706 1298 -4944 1306
-4972 l15 -53 75 0 c67 0 75 2 70 18 -3 9 -597 2260 -1321 5002 -724 2742
-1318 4993 -1321 5003 -4 14 -17 17 -74 17 l-68 0 14 -47z"/>
<path d="M87237 12448 c19 -73 612 -2331 1317 -5018 l1282 -4885 67 -3 c37 -2
67 1 67 6 0 5 -588 2248 -1306 4983 -718 2736 -1310 4991 -1315 5012 l-10 37
-69 0 -68 0 35 -132z"/>
<path d="M91073 9568 l3 -3013 22 -155 c136 -944 500 -1755 1092 -2435 131
-150 398 -407 550 -528 140 -112 443 -319 589 -401 497 -283 981 -435 1546
-486 142 -13 568 -13 710 0 473 43 871 151 1271 345 488 236 879 517 1254 901
682 699 1118 1608 1251 2611 19 145 21 231 29 1063 5 498 11 1851 14 3008 l5
2102 -1075 0 -1074 0 0 -2907 c0 -1958 -3 -2936 -10 -2993 -50 -409 -221 -824
-484 -1175 -270 -358 -639 -634 -1009 -754 -410 -132 -890 -100 -1261 86 -436
218 -801 598 -1036 1078 -91 184 -138 309 -179 468 -66 255 -64 195 -71 1612
-4 710 -8 2031 -9 2938 l-1 1647 -1065 0 -1065 0 3 -3012z m277 1717 l0 -85
-60 0 -60 0 0 85 0 85 60 0 60 0 0 -85z m280 0 l0 -85 -55 0 -55 0 0 85 0 85
55 0 55 0 0 -85z m280 0 l0 -85 -55 0 -55 0 0 85 0 85 55 0 55 0 0 -85z m290
0 l0 -85 -65 0 -65 0 0 85 0 85 65 0 65 0 0 -85z m280 0 l0 -85 -65 0 -65 0 0
85 0 85 65 0 65 0 0 -85z m280 0 l0 -85 -65 0 -65 0 0 85 0 85 65 0 65 0 0
-85z m280 0 l0 -85 -60 0 -60 0 0 85 0 85 60 0 60 0 0 -85z m4510 0 l0 -85
-60 0 -60 0 0 85 0 85 60 0 60 0 0 -85z m280 0 l0 -85 -60 0 -60 0 0 85 0 85
60 0 60 0 0 -85z m280 0 l0 -85 -55 0 -55 0 0 85 0 85 55 0 55 0 0 -85z m280
0 l0 -85 -55 0 -55 0 0 85 0 85 55 0 55 0 0 -85z m290 0 l0 -85 -60 0 -60 0 0
85 0 85 60 0 60 0 0 -85z m280 0 l0 -85 -60 0 -60 0 0 85 0 85 60 0 60 0 0
-85z m280 0 l0 -85 -60 0 -60 0 0 85 0 85 60 0 60 0 0 -85z m-7037 -2407 c3
-2470 -1 -2282 58 -2578 88 -438 300 -924 573 -1314 240 -342 549 -644 881
-861 363 -237 718 -373 1140 -437 123 -18 627 -18 750 1 325 49 552 119 840
261 186 91 408 231 565 356 114 90 398 376 491 494 367 464 611 984 719 1530
57 290 54 141 57 2573 l4 2237 54 0 55 0 2 -2097 c2 -1154 0 -2173 -4 -2265
-31 -717 -321 -1457 -812 -2072 -106 -133 -353 -380 -491 -490 -391 -313 -833
-525 -1281 -616 -342 -68 -806 -68 -1148 0 -449 91 -885 300 -1281 616 -140
112 -385 357 -499 499 -470 589 -757 1333 -790 2050 -3 66 -8 1075 -12 2242
l-6 2122 48 4 c27 2 57 4 66 5 17 2 18 -123 21 -2260z m280 15 c3 -2245 3
-2248 24 -2378 82 -497 253 -937 514 -1320 360 -529 898 -944 1464 -1130 252
-83 460 -115 750 -115 212 0 361 15 543 56 691 154 1344 650 1757 1333 181
301 333 683 400 1006 62 304 58 147 62 2578 l4 2217 54 0 55 0 0 -2184 c0
-1440 -4 -2219 -10 -2287 -42 -411 -159 -795 -364 -1194 -177 -346 -374 -615
-633 -866 -211 -204 -430 -362 -685 -494 -339 -175 -624 -254 -1005 -276 -686
-41 -1216 120 -1779 542 -143 107 -348 299 -465 434 -470 547 -756 1242 -798
1940 -6 102 -12 1017 -15 2278 l-4 2107 64 0 64 0 3 -2247z m280 20 c3 -2422
0 -2264 57 -2543 80 -386 271 -806 514 -1133 315 -424 773 -766 1226 -916 319
-106 773 -128 1125 -56 519 106 1045 457 1421 947 221 288 406 667 499 1020
89 339 95 439 95 1517 0 488 3 1450 7 2139 l6 1252 59 0 58 0 0 -2157 c0
-1381 -4 -2198 -10 -2268 -45 -484 -221 -974 -502 -1395 -132 -198 -207 -290
-377 -461 -162 -161 -263 -245 -426 -353 -329 -218 -616 -330 -965 -377 -143
-19 -528 -16 -674 5 -493 71 -944 313 -1357 725 -239 240 -403 466 -550 761
-191 381 -293 759 -319 1168 -5 81 -9 948 -9 1927 -1 979 -4 1925 -8 2103 l-6
322 66 0 66 0 4 -2227z m277 115 c0 -1354 4 -2165 11 -2257 31 -444 184 -882
444 -1271 329 -493 825 -853 1315 -954 220 -45 594 -48 805 -6 231 45 476 149
690 292 573 382 984 1056 1091 1788 15 104 18 324 24 2210 4 1152 8 2143 9
2203 l1 107 60 0 61 0 -4 -2217 -3 -2218 -21 -133 c-81 -492 -276 -933 -580
-1312 -85 -107 -273 -296 -377 -380 -281 -227 -603 -387 -904 -449 -239 -49
-616 -50 -852 -1 -234 48 -489 158 -715 307 -584 386 -1008 1054 -1136 1793
-21 119 -22 166 -29 945 -5 451 -8 1460 -9 2243 l-1 1422 60 0 60 0 0 -2112z
m5637 -120 c-3 -2031 -5 -2244 -20 -2358 -41 -299 -93 -528 -179 -780 -290
-853 -838 -1556 -1570 -2013 -444 -278 -872 -427 -1371 -477 -178 -18 -616 -8
-778 19 -373 60 -689 168 -1014 344 -1016 552 -1725 1570 -1917 2752 l-23 140
-2 2298 -3 2297 55 0 55 0 0 -2097 c0 -1283 4 -2166 10 -2273 23 -400 101
-751 247 -1120 323 -816 862 -1451 1578 -1861 356 -204 732 -327 1140 -374
151 -17 504 -20 656 -5 598 61 1133 287 1649 699 133 106 374 344 494 487 465
556 754 1234 842 1974 14 118 17 405 24 2230 4 1152 8 2152 9 2223 l1 127 60
0 61 0 -4 -2232z m280 -20 c-3 -2449 0 -2293 -57 -2618 -97 -549 -332 -1134
-643 -1600 -548 -820 -1378 -1408 -2270 -1605 -270 -59 -373 -69 -752 -69
-284 -1 -373 3 -470 17 -400 59 -707 153 -1033 316 -787 394 -1394 1014 -1798
1835 -273 555 -411 1101 -417 1656 -1 91 -1 1098 1 2238 l2 2072 55 0 55 0 0
-2147 c0 -2147 2 -2294 36 -2548 145 -1094 801 -2162 1695 -2763 496 -333 996
-513 1561 -563 195 -17 626 -6 798 20 368 56 653 146 970 305 487 245 896 579
1245 1016 414 519 716 1175 830 1805 59 329 57 253 65 2010 4 891 8 1902 9
2248 l1 627 60 0 61 0 -4 -2252z m280 -20 c-3 -2492 1 -2314 -62 -2663 -121
-665 -415 -1334 -826 -1881 -562 -747 -1372 -1303 -2205 -1513 -532 -134
-1167 -145 -1704 -29 -872 188 -1713 748 -2316 1543 -412 543 -722 1244 -834
1885 -57 323 -53 162 -57 2638 l-4 2282 60 0 60 0 4 -2262 c3 -2480 -1 -2305
62 -2653 212 -1172 931 -2237 1926 -2855 469 -292 897 -445 1459 -522 130 -18
730 -18 860 0 549 75 952 216 1413 494 1018 613 1756 1693 1972 2883 57 317
57 304 65 1510 4 616 8 1636 9 2268 l1 1147 60 0 61 0 -4 -2272z"/>
<path d="M72750 12225 l0 -75 3465 0 3465 0 0 75 0 75 -3465 0 -3465 0 0 -75z"/>
<path d="M72750 11945 l0 -75 3465 0 3465 0 0 75 0 75 -3465 0 -3465 0 0 -75z"/>
<path d="M72750 11650 l0 -80 3465 0 3465 0 0 80 0 80 -3465 0 -3465 0 0 -80z"/>
<path d="M72750 11355 l0 -75 3465 0 3465 0 0 75 0 75 -3465 0 -3465 0 0 -75z"/>
<path d="M72750 11075 l0 -75 3465 0 3465 0 0 75 0 75 -3465 0 -3465 0 0 -75z"/>
<path d="M72750 10795 l0 -75 3465 0 3465 0 0 75 0 75 -3465 0 -3465 0 0 -75z"/>
<path d="M72750 10500 l0 -80 2110 0 c1161 0 2110 -2 2110 -5 0 -4 -712 -975
-925 -1260 -45 -60 -800 -1087 -1678 -2282 l-1597 -2171 0 -76 0 -76 3590 0
3590 0 0 70 0 70 -2249 2 -2249 3 359 483 c197 265 359 485 359 487 0 9 152
205 159 205 9 0 83 105 83 117 -1 10 36 58 78 103 18 19 38 46 44 60 15 35
108 160 118 160 5 0 13 11 18 24 5 13 683 937 1507 2052 l1498 2029 3 83 3 82
-3465 0 -3466 0 0 -80z m3567 -1487 l-35 -48 -86 -3 c-47 -1 -86 0 -86 2 0 3
14 26 32 51 l32 45 89 0 89 0 -35 -47z m361 1 c-18 -26 -38 -48 -44 -51 -6 -2
-45 -3 -87 -1 l-76 3 35 48 34 47 86 0 85 0 -33 -46z m349 -1 l-35 -48 -81 -3
c-45 -2 -81 0 -81 3 0 3 15 26 33 50 l32 44 83 1 84 0 -35 -47z m383 42 c0 -2
-14 -25 -32 -50 l-32 -45 -78 0 c-61 0 -77 3 -71 13 4 7 19 29 33 50 l25 37
78 0 c42 0 77 -2 77 -5z m333 -45 l-37 -50 -83 0 c-46 0 -83 2 -83 5 0 3 15
26 33 50 l32 44 88 1 87 0 -37 -50z m377 45 c0 -2 -14 -25 -32 -50 l-32 -45
-83 0 -83 0 37 50 37 50 78 0 c43 0 78 -2 78 -5z m353 -8 c-4 -7 -19 -29 -33
-50 l-25 -37 -77 0 c-43 0 -78 2 -78 5 0 2 14 25 32 50 l32 45 78 0 c61 0 77
-3 71 -13z m-2280 -201 c-21 -29 -445 -605 -943 -1279 l-905 -1227 -88 0 -89
0 31 43 c18 23 442 599 944 1279 l912 1237 88 1 89 0 -39 -54z m391 42 c-4 -6
-428 -581 -941 -1277 l-934 -1266 -85 -3 -85 -3 28 38 c15 21 439 598 942
1281 l914 1242 84 0 c62 0 82 -3 77 -12z m351 2 c-18 -29 -1850 -2518 -1864
-2533 -15 -15 -31 -17 -98 -15 l-80 3 808 1095 c445 602 870 1177 944 1278
l135 182 81 0 c53 0 78 -4 74 -10z m297 -82 c-38 -51 -457 -619 -931 -1263
-475 -643 -871 -1178 -880 -1188 -14 -15 -31 -17 -92 -15 l-75 3 838 1135
c461 624 885 1199 943 1278 l106 142 80 0 79 0 -68 -92z m416 74 c-7 -10 -431
-585 -942 -1278 -511 -692 -930 -1260 -931 -1262 -2 -2 -39 -2 -84 0 l-81 3
846 1150 c465 633 888 1207 940 1278 l94 127 86 0 c80 0 84 -1 72 -18z m350 1
c-8 -10 -432 -586 -942 -1280 l-928 -1263 -85 0 c-83 0 -85 0 -72 20 8 11 433
587 944 1280 l930 1259 84 1 c79 0 83 -1 69 -17z m360 8 c-1 -4 -425 -580
-942 -1280 l-938 -1271 -81 0 c-44 0 -78 2 -76 4 2 3 427 578 944 1280 l940
1275 78 1 c43 0 77 -4 75 -9z m-4103 -2671 l-46 -60 -85 0 c-66 0 -83 3 -78
13 5 6 23 33 42 60 l34 47 90 0 89 0 -46 -60z m362 0 l-42 -59 -83 -1 -83 0
43 60 42 60 83 0 83 0 -43 -60z m393 55 c0 -3 -19 -30 -41 -60 l-41 -55 -85 0
c-93 0 -91 -5 -34 73 l34 47 84 0 c46 0 83 -2 83 -5z m350 0 c0 -3 -19 -30
-41 -60 l-41 -55 -80 0 -79 0 43 60 42 60 78 0 c43 0 78 -2 78 -5z m360 0 c0
-3 -19 -30 -41 -60 l-41 -55 -80 0 c-88 0 -86 -4 -31 73 l35 47 79 0 c43 0 79
-2 79 -5z m353 -8 c-4 -7 -23 -34 -42 -60 l-34 -47 -84 0 c-46 0 -83 2 -83 5
0 3 19 30 41 60 l41 55 85 0 c67 0 82 -3 76 -13z m316 -47 l-42 -60 -79 0
c-88 0 -86 -5 -29 73 l34 47 79 0 79 0 -42 -60z"/>
<path d="M49560 8295 l0 -85 1840 0 1840 0 0 85 0 85 -1840 0 -1840 0 0 -85z"/>
<path d="M49560 8010 l0 -80 1840 0 1840 0 0 80 0 80 -1840 0 -1840 0 0 -80z"/>
<path d="M49560 7735 l0 -75 1840 0 1840 0 0 75 0 75 -1840 0 -1840 0 0 -75z"/>
<path d="M49560 7455 l0 -75 1840 0 1840 0 0 75 0 75 -1840 0 -1840 0 0 -75z"/>
<path d="M49560 7180 l0 -80 1840 0 1840 0 0 80 0 80 -1840 0 -1840 0 0 -80z"/>
<path d="M49560 6895 l0 -85 1840 0 1840 0 0 85 0 85 -1840 0 -1840 0 0 -85z"/>
<path d="M49560 6615 l0 -85 1840 0 1840 0 0 85 0 85 -1840 0 -1840 0 0 -85z"/>
<path d="M72770 4335 l0 -75 3590 0 3590 0 0 75 0 75 -3590 0 -3590 0 0 -75z"/>
<path d="M72770 4055 l0 -75 3590 0 3590 0 0 75 0 75 -3590 0 -3590 0 0 -75z"/>
<path d="M72770 3750 l0 -70 3590 0 3590 0 0 70 0 70 -3590 0 -3590 0 0 -70z"/>
<path d="M72770 3465 l0 -75 3590 0 3590 0 0 75 0 75 -3590 0 -3590 0 0 -75z"/>
<path d="M72770 3185 l0 -75 3590 0 3590 0 0 75 0 75 -3590 0 -3590 0 0 -75z"/>
<path d="M72770 2905 l0 -75 3590 0 3590 0 0 75 0 75 -3590 0 -3590 0 0 -75z"/>
<path d="M72770 2630 l0 -80 3590 0 3590 0 0 80 0 80 -3590 0 -3590 0 0 -80z"/>
</g>
</svg>
